<svg aria-hidden="true" style="position: absolute; width: 0; height: 0; overflow: hidden;" version="1.1" xmlns="http://www.w3.org/2000/svg" xmlns:xlink="http://www.w3.org/1999/xlink">
<defs>
<symbol id="icon-portfolio-p" viewBox="0 0 32 32">
<path fill="#f78cb6" style="fill: var(--color1, #f78cb6); stroke: var(--color1, #f78cb6)" stroke="#f78cb6" stroke-linejoin="miter" stroke-linecap="butt" stroke-miterlimit="4" stroke-width="0.3333" d="M31.832 26.965v0-17.759h0c0.042-1.502-1.142-2.754-2.644-2.796v0c-0.062-0.002-0.125-0.001-0.187 0.001l-0.007 0v-0h-6.527v-1.381h0c0.041-1.567-1.196-2.87-2.763-2.911l12.128 24.845zM31.832 26.965v0zM12.371 2.119h-0c-1.567-0.001-2.838 1.27-2.839 2.837l2.839-2.837zM12.371 2.119h7.258c0.025 0 0.050 0 0.075 0.001l-7.333-0.001zM9.533 5.035h-0v1.376l-6.534-0c-1.502-0.061-2.769 1.106-2.83 2.607l9.364-3.983zM9.533 5.035l-0-0.005M9.533 5.035l-0-0.005M9.533 5.030c-0.001-0.024-0.001-0.049-0.001-0.074l0.001 0.074zM0.168 9.21h-0v17.759h-0c-0.041 1.567 1.196 2.87 2.763 2.911 0 0 0 0 0 0l-0.004 0.167-2.759-20.836zM0.168 9.21l-0-0.005M0.168 9.21l-0-0.005M0.168 9.206c-0.002-0.062-0.001-0.125 0.001-0.187l-0.001 0.187zM12.282 3.349h0c0.029-0.002 0.059-0.002 0.089-0.002M12.282 3.349l7.347 0.164v-0.167h-0c-0 0-0 0-0 0h-7.258M12.282 3.349c-0.887 0.048-1.567 0.804-1.521 1.691l1.521-1.691zM12.371 3.346h0c-0 0-0 0-0 0zM29.083 28.651h-0c-0.029 0.002-0.059 0.002-0.089 0.002M29.083 28.651l-0.089-0.164M29.083 28.651c0.887-0.048 1.567-0.804 1.521-1.691v-5.415l-0.258 0.168c-0.398 0.26-0.869 0.387-1.344 0.363v-0h-8.096v2.417c-0.065 0.385-0.385 0.677-0.776 0.705h-8.261c-0.39-0.028-0.711-0.32-0.776-0.705v-2.417l-8.096 0c-0.475 0.024-0.946-0.103-1.344-0.363l-0.258-0.168v5.415c-0.001 0.028-0.002 0.056-0.002 0.085M29.083 28.651l-26.078-0.164M28.994 28.654l0-0.167M28.994 28.654h0v-0.167M28.994 28.654h-25.988M28.994 28.487h-25.988M3.006 28.654l-0-0.167M3.006 28.654h-0v-0.167M3.006 28.654c-0.889 0.001-1.611-0.719-1.613-1.608M1.393 27.046c0 0 0-0 0-0v0c0 0 0-0 0-0zM29.083 20.847h-0c-0.029 0.002-0.059 0.002-0.089 0.002M29.083 20.847l-0.089-0.164M29.083 20.847c0.887-0.048 1.567-0.804 1.521-1.691M29.083 20.847l1.521-1.691M28.994 20.849l0-0.167M28.994 20.849h0v-0.167M28.994 20.849h-8.088v-1.845c0-0.139-0.080-0.259-0.229-0.351-0.151-0.094-0.353-0.146-0.541-0.146h-8.272c-0.188 0-0.391 0.052-0.541 0.146-0.149 0.093-0.229 0.212-0.229 0.351v1.845h-8.088M28.994 20.683h-7.921v-1.678c0-0.429-0.507-0.663-0.937-0.663h-8.272c-0.429 0-0.937 0.234-0.937 0.663v1.678h-7.921M3.006 20.849l-0-0.167M3.006 20.849h-0v-0.167M3.006 20.849c-0.889 0.001-1.611-0.719-1.613-1.608M3.006 20.683c-0.797 0.001-1.445-0.644-1.446-1.442M1.56 19.241l-0.167 0c0 0 0 0 0 0M1.56 19.241c-0-0.027 0.001-0.053 0.002-0.080M1.56 19.241l0.002-0.080M1.56 19.241l-0.167 0c0 0 0-0 0-0M1.56 19.241l-0.167 0M1.562 19.161v0zM1.395 9.215c-0.049-0.821 0.576-1.527 1.397-1.579v0c0.074-0.005 0.147-0.004 0.221 0.002h25.974c0.818-0.070 1.54 0.534 1.614 1.353M1.395 9.215l29.043-0.005M1.395 9.215v0zM30.601 8.992v0c0 0 0 0 0 0zM30.601 8.992c0.007 0.074 0.008 0.149 0.003 0.223M30.605 9.215v-0.005h-0.167M30.605 9.215v9.941M30.605 9.215c-0 0.002-0 0.004-0 0.005l-0.166-0.010M30.438 9.21l0.167 9.946M12.321 23.804v0.167h7.357v-4.235h-7.357v4.069z"></path>
</symbol>
</defs>
</svg>
