<svg aria-hidden="true" style="position: absolute; width: 0; height: 0; overflow: hidden;" version="1.1" xmlns="http://www.w3.org/2000/svg" xmlns:xlink="http://www.w3.org/1999/xlink">
<defs>
<symbol id="icon-menu" viewBox="0 0 32 32">
<path d="M3.2 7.467c-0.005-0-0.010-0-0.015-0-0.589 0-1.067 0.478-1.067 1.067s0.478 1.067 1.067 1.067c0.005 0 0.011-0 0.016-0h25.599c0.005 0 0.010 0 0.015 0 0.589 0 1.067-0.478 1.067-1.067s-0.478-1.067-1.067-1.067c-0.005 0-0.011 0-0.016 0h-25.599zM3.2 14.933c-0.005-0-0.010-0-0.015-0-0.589 0-1.067 0.478-1.067 1.067s0.478 1.067 1.067 1.067c0.005 0 0.011-0 0.016-0h25.599c0.005 0 0.010 0 0.015 0 0.589 0 1.067-0.478 1.067-1.067s-0.478-1.067-1.067-1.067c-0.005 0-0.011 0-0.016 0h-25.599zM3.2 22.4c-0.005-0-0.010-0-0.015-0-0.589 0-1.067 0.478-1.067 1.067s0.478 1.067 1.067 1.067c0.005 0 0.011-0 0.016-0h25.599c0.005 0 0.010 0 0.015 0 0.589 0 1.067-0.478 1.067-1.067s-0.478-1.067-1.067-1.067c-0.005 0-0.011 0-0.016 0h-25.599z"></path>
</symbol>
</defs>
</svg>
