<svg width="20" height="19" fill="none" xmlns="http://www.w3.org/2000/svg"><path fill-rule="evenodd" clip-rule="evenodd" d="M7.192 5.517a.594.594 0 0 1 .127.648.594.594 0 0 1-.127.193L4.078 9.5l3.114 3.142a.595.595 0 0 1 0 .841.59.59 0 0 1-.642.129.589.589 0 0 1-.191-.129l-3.53-3.562a.594.594 0 0 1-.127-.648.594.594 0 0 1 .128-.193l3.529-3.563A.588.588 0 0 1 7 5.388c.071.03.136.074.19.13Z" fill="#56597A" fill-opacity=".6"/><path fill-rule="evenodd" clip-rule="evenodd" d="M3.246 9.5c0-.157.062-.308.173-.42a.585.585 0 0 1 .415-.174h12.351c.156 0 .306.063.416.174a.597.597 0 0 1-.416 1.014H3.835a.585.585 0 0 1-.416-.174.597.597 0 0 1-.173-.42Z" fill="#56597A" fill-opacity=".6"/></svg>