<svg width="27" height="25" fill="none" xmlns="http://www.w3.org/2000/svg"><path fill-rule="evenodd" clip-rule="evenodd" d="M17.157 7.26a.82.82 0 0 1 .579-.23.85.85 0 0 1 .578.23l4.901 4.687a.752.752 0 0 1 0 1.106l-4.9 4.688a.837.837 0 0 1-.58.229.837.837 0 0 1-.578-.23.765.765 0 0 1-.24-.552c0-.208.087-.407.24-.553l4.325-4.135-4.325-4.134a.778.778 0 0 1-.24-.553.751.751 0 0 1 .24-.553Z" fill="#F78CB6"/><path fill-rule="evenodd" clip-rule="evenodd" d="M3.85 12.5c0-.207.085-.406.238-.552a.836.836 0 0 1 .578-.229H21.82c.217 0 .424.082.578.229.153.146.239.345.239.552a.764.764 0 0 1-.24.553.836.836 0 0 1-.577.228H4.666a.836.836 0 0 1-.578-.228.764.764 0 0 1-.239-.553Z" fill="#F78CB6"/></svg>