<svg aria-hidden="true" style="position: absolute; width: 0; height: 0; overflow: hidden;" version="1.1" xmlns="http://www.w3.org/2000/svg" xmlns:xlink="http://www.w3.org/1999/xlink">
<defs>
<symbol id="icon-twit-2" viewBox="0 0 32 32">
<path fill="#fff" style="fill: var(--color1, #fff)" d="M32 16c0 8.837-7.163 16-16 16s-16-7.163-16-16c0-8.837 7.163-16 16-16s16 7.163 16 16z"></path>
<path fill="#a7a7a7" style="fill: var(--color2, #a7a7a7)" d="M25.756 10.325c-1.227 0.059-1.201 0.054-1.339 0.066l0.727-2.159c0 0-2.269 0.868-2.844 1.023-1.511-1.412-3.756-1.475-5.362-0.448-1.315 0.841-2.020 2.284-1.785 3.971-2.559-0.369-4.714-1.631-6.416-3.757l-0.538-0.672-0.402 0.768c-0.508 0.971-0.677 2.081-0.475 3.125 0.083 0.429 0.223 0.837 0.418 1.22l-0.462-0.186-0.055 0.802c-0.056 0.815 0.205 1.767 0.698 2.545 0.139 0.219 0.317 0.46 0.544 0.697l-0.239-0.038 0.291 0.919c0.383 1.208 1.178 2.143 2.209 2.662-1.030 0.455-1.863 0.745-3.231 1.213l-1.252 0.428 1.156 0.657c0.441 0.251 1.998 1.088 3.537 1.339 3.421 0.558 7.273 0.104 9.866-2.325 2.184-2.046 2.901-4.955 2.752-7.984-0.022-0.458 0.098-0.896 0.34-1.232 0.484-0.672 1.858-2.632 1.861-2.636v0zM22.98 12.249c-0.401 0.557-0.603 1.27-0.567 2.005 0.15 3.054-0.649 5.423-2.375 7.040-2.017 1.889-5.27 2.63-8.924 2.034-0.662-0.108-1.346-0.35-1.912-0.591 1.147-0.41 2.033-0.776 3.463-1.48l1.997-0.983-2.205-0.147c-1.056-0.070-1.935-0.603-2.476-1.467 0.287-0.017 0.564-0.066 0.839-0.146l2.103-0.609-2.12-0.54c-1.030-0.262-1.618-0.904-1.929-1.395-0.204-0.323-0.338-0.654-0.418-0.959 0.213 0.059 0.46 0.102 0.86 0.143l1.963 0.202-1.555-1.261c-1.12-0.909-1.569-2.274-1.24-3.587 3.496 3.772 7.602 3.488 8.015 3.588-0.091-0.919-0.093-0.921-0.117-1.008-0.529-1.946 0.631-2.934 1.154-3.268 1.093-0.698 2.827-0.804 4.029 0.347 0.259 0.248 0.61 0.346 0.939 0.261 0.295-0.076 0.537-0.157 0.774-0.245l-0.493 1.464 0.629 0c-0.119 0.166-0.261 0.364-0.433 0.602z"></path>
</symbol>
<symbol id="icon-vid-2" viewBox="0 0 32 32">
<path fill="#fff" style="fill: var(--color1, #fff)" d="M32 16c0 8.837-7.163 16-16 16s-16-7.163-16-16c0-8.837 7.163-16 16-16s16 7.163 16 16z"></path>
<path fill="#a7a7a7" style="fill: var(--color2, #a7a7a7)" d="M18.645 15.925l-4.39-2.744c-0.169-0.106-0.382-0.111-0.557-0.015s-0.283 0.28-0.283 0.48v5.488c0 0.2 0.108 0.383 0.283 0.48 0.083 0.046 0.175 0.069 0.266 0.069 0.101 0 0.202-0.028 0.291-0.083l4.39-2.744c0.16-0.1 0.258-0.276 0.258-0.465s-0.097-0.365-0.258-0.465zM14.512 18.144v-3.508l2.806 1.754-2.806 1.754z"></path>
<path fill="#a7a7a7" style="fill: var(--color2, #a7a7a7)" d="M22.232 9.256h-13.244c-1.513 0-2.744 1.231-2.744 2.744v8.78c0 1.513 1.231 2.744 2.744 2.744h13.244c1.513 0 2.744-1.231 2.744-2.744v-8.78c0-1.513-1.231-2.744-2.744-2.744zM23.878 20.78c0 0.908-0.739 1.646-1.646 1.646h-13.244c-0.908 0-1.646-0.739-1.646-1.646v-8.78c0-0.908 0.739-1.646 1.646-1.646h13.244c0.908 0 1.646 0.739 1.646 1.646v8.78z"></path>
</symbol>
<symbol id="icon-inst-2" viewBox="0 0 32 32">
<path fill="#fff" style="fill: var(--color1, #fff)" d="M32 16c0 8.837-7.163 16-16 16s-16-7.163-16-16c0-8.837 7.163-16 16-16s16 7.163 16 16z"></path>
<path fill="#a7a7a7" style="fill: var(--color2, #a7a7a7)" d="M19.547 7.805h-7.875c-2.563 0-4.648 2.085-4.648 4.648v7.875c0 2.563 2.085 4.648 4.648 4.648h7.875c2.563 0 4.648-2.085 4.648-4.648v-7.875c0-2.563-2.085-4.648-4.648-4.648v0zM23.188 20.328c0 2.008-1.633 3.641-3.641 3.641h-7.875c-2.008 0-3.641-1.633-3.641-3.641v-7.875c0-2.008 1.633-3.641 3.641-3.641h7.875c2.008 0 3.641 1.633 3.641 3.641v7.875z"></path>
<path fill="#a7a7a7" style="fill: var(--color2, #a7a7a7)" d="M15.61 11.695c-2.589 0-4.695 2.106-4.695 4.695s2.106 4.695 4.695 4.695c2.589 0 4.695-2.106 4.695-4.695s-2.106-4.695-4.695-4.695zM15.61 20.078c-2.034 0-3.688-1.655-3.688-3.688s1.655-3.688 3.688-3.688c2.034 0 3.688 1.655 3.688 3.688s-1.655 3.688-3.688 3.688z"></path>
<path fill="#a7a7a7" style="fill: var(--color2, #a7a7a7)" d="M20.417 10.028c-0.765 0-1.387 0.622-1.387 1.387s0.622 1.387 1.387 1.387c0.765 0 1.387-0.622 1.387-1.387s-0.622-1.387-1.387-1.387zM20.417 11.796c-0.21 0-0.381-0.171-0.381-0.381s0.171-0.381 0.381-0.381c0.21 0 0.381 0.171 0.381 0.381s-0.171 0.381-0.381 0.381z"></path>
</symbol>
<symbol id="icon-fb-2" viewBox="0 0 32 32">
<path fill="#fff" style="fill: var(--color1, #fff)" d="M32 16c0 8.837-7.163 16-16 16s-16-7.163-16-16c0-8.837 7.163-16 16-16s16 7.163 16 16z"></path>
<path fill="#a7a7a7" style="fill: var(--color2, #a7a7a7)" d="M22.274 7.805h-12.549c-1.059 0-1.921 0.862-1.921 1.921v12.549c0 1.059 0.862 1.921 1.921 1.921h12.549c1.059 0 1.921-0.862 1.921-1.921v-12.549c0-1.059-0.862-1.921-1.921-1.921zM22.915 22.274c0 0.353-0.287 0.64-0.64 0.64h-3.649v-5.218h1.978l0.327-1.985h-2.305v-1.377c0-0.543 0.417-0.96 0.96-0.96h1.312v-1.985h-1.312c-1.63 0-2.944 1.32-2.944 2.951v1.371h-1.921v1.985h1.921v5.218h-6.915c-0.353 0-0.64-0.287-0.64-0.64v-12.549c0-0.353 0.287-0.64 0.64-0.64h12.549c0.353 0 0.64 0.287 0.64 0.64v12.549z"></path>
</symbol>
<symbol id="icon-twitter-gray" viewBox="0 0 33 32">
<path fill="#a7a7a7" style="fill: var(--color1, #a7a7a7)" d="M29 5.229c-1.573 0.075-1.538 0.069-1.716 0.085l0.931-2.766c0 0-2.907 1.112-3.644 1.311-1.936-1.809-4.813-1.889-6.869-0.574-1.684 1.077-2.588 2.926-2.287 5.088-3.278-0.473-6.040-2.089-8.221-4.814l-0.69-0.861-0.515 0.984c-0.651 1.244-0.868 2.666-0.609 4.004 0.106 0.549 0.286 1.073 0.536 1.563l-0.592-0.238-0.070 1.028c-0.071 1.044 0.263 2.264 0.895 3.261 0.178 0.281 0.407 0.589 0.697 0.894l-0.306-0.049 0.373 1.178c0.49 1.548 1.509 2.745 2.831 3.411-1.32 0.583-2.386 0.954-4.139 1.554l-1.604 0.548 1.481 0.842c0.565 0.321 2.56 1.394 4.532 1.715 4.383 0.715 9.318 0.133 12.64-2.979 2.798-2.621 3.716-6.349 3.526-10.229-0.029-0.587 0.126-1.148 0.436-1.578 0.62-0.862 2.381-3.372 2.385-3.378v0zM25.444 7.694c-0.514 0.714-0.772 1.627-0.726 2.568 0.192 3.913-0.831 6.948-3.043 9.020-2.584 2.42-6.752 3.37-11.434 2.606-0.848-0.138-1.724-0.448-2.45-0.757 1.47-0.526 2.605-0.995 4.437-1.897l2.559-1.259-2.825-0.188c-1.353-0.090-2.48-0.772-3.172-1.879 0.368-0.022 0.722-0.084 1.075-0.187l2.694-0.78-2.717-0.692c-1.32-0.336-2.073-1.158-2.471-1.788-0.262-0.414-0.433-0.838-0.536-1.229 0.272 0.076 0.59 0.13 1.102 0.183l2.514 0.259-1.992-1.616c-1.435-1.164-2.011-2.914-1.589-4.595 4.48 4.833 9.74 4.469 10.27 4.597-0.116-1.177-0.12-1.18-0.15-1.292-0.678-2.493 0.808-3.759 1.478-4.187 1.4-0.895 3.622-1.030 5.162 0.445 0.332 0.318 0.782 0.443 1.203 0.335 0.378-0.098 0.688-0.201 0.991-0.313l-0.632 1.876 0.806 0.001c-0.152 0.212-0.335 0.466-0.554 0.771z"></path>
</symbol>
<symbol id="icon-hamburger-menu" viewBox="0 0 32 32">
<path stroke-linejoin="round" stroke-linecap="round" stroke-miterlimit="10" stroke-width="2" d="M7 16h18"></path>
<path stroke-linejoin="round" stroke-linecap="round" stroke-miterlimit="10" stroke-width="2" d="M7 25h18"></path>
<path stroke-linejoin="round" stroke-linecap="round" stroke-miterlimit="10" stroke-width="2" d="M7 7h18"></path>
</symbol>
<symbol id="icon-icon-menu" viewBox="0 0 32 32">
<path d="M2.667 6.667v2.667h26.667v-2.667h-26.667zM2.667 14.667v2.667h26.667v-2.667h-26.667zM2.667 22.667v2.667h26.667v-2.667h-26.667z"></path>
</symbol>
<symbol id="icon-menu" viewBox="0 0 32 32">
<path d="M3.2 7.467c-0.005-0-0.010-0-0.015-0-0.589 0-1.067 0.478-1.067 1.067s0.478 1.067 1.067 1.067c0.005 0 0.011-0 0.016-0h25.599c0.005 0 0.010 0 0.015 0 0.589 0 1.067-0.478 1.067-1.067s-0.478-1.067-1.067-1.067c-0.005 0-0.011 0-0.016 0h-25.599zM3.2 14.933c-0.005-0-0.010-0-0.015-0-0.589 0-1.067 0.478-1.067 1.067s0.478 1.067 1.067 1.067c0.005 0 0.011-0 0.016-0h25.599c0.005 0 0.010 0 0.015 0 0.589 0 1.067-0.478 1.067-1.067s-0.478-1.067-1.067-1.067c-0.005 0-0.011 0-0.016 0h-25.599zM3.2 22.4c-0.005-0-0.010-0-0.015-0-0.589 0-1.067 0.478-1.067 1.067s0.478 1.067 1.067 1.067c0.005 0 0.011-0 0.016-0h25.599c0.005 0 0.010 0 0.015 0 0.589 0 1.067-0.478 1.067-1.067s-0.478-1.067-1.067-1.067c-0.005 0-0.011 0-0.016 0h-25.599z"></path>
</symbol>
<symbol id="icon-d" viewBox="0 0 32 32">
<path fill="#f78cb6" style="fill: var(--color1, #f78cb6)" d="M4.691 0h-3.749c-0.518 0-0.937 0.42-0.937 0.938v0 3.81c-0 0.008-0 0.017-0 0.026 0 0.518 0.42 0.938 0.938 0.938s0.938-0.42 0.938-0.938c0-0.009-0-0.019-0-0.028l0 0.001v-2.873h2.812c0.008 0 0.017 0 0.026 0 0.518 0 0.938-0.42 0.938-0.938s-0.42-0.938-0.938-0.938c-0.009 0-0.019 0-0.028 0l0.001-0zM31.058 0h-3.748c-0.008-0-0.017-0-0.026-0-0.518 0-0.938 0.42-0.938 0.938s0.42 0.938 0.938 0.938c0.009 0 0.019-0 0.028-0l-0.001 0h2.812v2.873c-0 0.008-0 0.017-0 0.026 0 0.518 0.42 0.938 0.938 0.938s0.938-0.42 0.938-0.938c0-0.009-0-0.019-0-0.028l0 0.001v-3.81c0-0.518-0.42-0.938-0.938-0.938v0zM4.691 30.116h-2.812v-2.874c-0.015-0.506-0.429-0.911-0.937-0.911s-0.923 0.405-0.937 0.91l-0 0.001v3.811c0 0.518 0.42 0.938 0.938 0.938h3.748c0.506-0.015 0.911-0.429 0.911-0.937s-0.405-0.923-0.91-0.937l-0.001-0zM31.058 26.305c-0.518 0-0.937 0.42-0.937 0.938v0 2.874h-2.812c-0.506 0.015-0.911 0.429-0.911 0.937s0.405 0.923 0.91 0.937l0.001 0h3.748c0.518 0 0.938-0.42 0.938-0.938v0-3.811c0-0.518-0.42-0.938-0.938-0.938v0zM29.523 7.689l-13.053-7.562c-0.135-0.079-0.297-0.126-0.47-0.126s-0.335 0.047-0.474 0.129l0.004-0.002-13.060 7.562c-0.281 0.166-0.467 0.466-0.467 0.81v15.001c0 0.336 0.183 0.651 0.476 0.816l13.052 7.557c0.141 0.082 0.307 0.127 0.47 0.127 0.169 0 0.335-0.048 0.47-0.127l13.051-7.561c0.302-0.218 0.465-0.402 0.47-0.802v-15.007l0.001-0.005c0-0.333-0.18-0.644-0.467-0.81zM15.062 29.436l-10.24-5.932 7.896-4.528c0.298-0.161 0.497-0.471 0.497-0.828 0-0.518-0.42-0.938-0.938-0.938-0.182 0-0.352 0.052-0.496 0.142l0.004-0.002-7.907 4.531v-11.763l11.184 6.422v12.895zM16 14.919l-11.178-6.422 11.178-6.476 11.178 6.476-11.178 6.422zM28.123 21.882l-7.908-4.531c-0.14-0.087-0.31-0.139-0.492-0.139-0.518 0-0.938 0.42-0.938 0.938 0 0.356 0.199 0.666 0.492 0.825l0.005 0.002 7.894 4.527-10.239 5.932v-12.893l11.185-6.423v11.763z"></path>
</symbol>
<symbol id="icon-d-design" viewBox="0 0 32 32">
<path fill="#fc85b4" style="fill: var(--color2, #fc85b4)" d="M32.112 17.062v-0.001l-0.445-0.481 0.038-0.106-7.18-2.643v-8.583c0-0.009 0.001-0.019 0.001-0.030 0-0.266-0.168-0.493-0.404-0.58l-0.004-0.001-7.587-2.791c-0.063-0.024-0.136-0.038-0.212-0.038s-0.149 0.014-0.216 0.040l0.004-0.001-7.586 2.792c-0.169 0.064-0.3 0.195-0.363 0.359l-0.001 0.004h-0.042v8.831l-7.181 2.643c-0.169 0.064-0.3 0.194-0.363 0.358l-0.001 0.004h-0.041v9.299c0 0.257 0.158 0.495 0.406 0.586l7.587 2.792c0.137 0.051 0.287 0.051 0.424 0l7.375-2.714 7.375 2.714c0.136 0.051 0.287 0.051 0.424 0l7.587-2.792c0.16-0.061 0.286-0.181 0.353-0.333l0.002-0.004h0.052v-9.322zM8.115 20.29v7.747l-6.351-2.337v-7.747l6.351 2.337zM8.693 14.948l5.783 2.128-5.743 2.113-5.782-2.128 5.743-2.113zM15.702 17.953v7.747l-6.352 2.337v-7.747l6.352-2.337zM15.702 8.453v7.717l-6.352-2.338v-7.717l6.352 2.337zM10.538 5.224l5.782-2.128 5.782 2.128-5.782 2.127-5.782-2.127zM16.938 8.452l6.351-2.337v7.717l-6.351 2.338v-7.717zM23.289 20.29v7.747l-6.351-2.337v-7.747l6.351 2.337zM29.69 17.061l-5.782 2.128-5.743-2.113 5.783-2.128 5.743 2.113zM30.876 17.953v7.747l-6.351 2.337v-7.747l6.351-2.337z"></path>
</symbol>
<symbol id="icon-arrow" viewBox="0 0 66 32">
<path fill="#fff" style="fill: var(--color3, #fff)" d="M2.133 13.137c-1.178 0-2.133 0.955-2.133 2.133s0.955 2.133 2.133 2.133v0-4.267zM64 15.27l1.463 1.551c0.413-0.39 0.67-0.941 0.67-1.552 0-0.65-0.291-1.233-0.75-1.624l-0.003-0.002-1.38 1.63zM47.070 28.316c-0.386 0.386-0.624 0.919-0.624 1.508 0 1.178 0.955 2.133 2.133 2.133 0.545 0 1.043-0.204 1.42-0.541l-0.002 0.002-2.927-3.102zM49.914 0.508c-0.362-0.293-0.828-0.47-1.336-0.47-1.178 0-2.133 0.955-2.133 2.133 0 0.63 0.273 1.196 0.707 1.586l0.002 0.002 2.761-3.251zM2.133 17.404h61.867v-4.267h-61.867v4.267zM62.537 13.717l-15.467 14.596 2.927 3.102 15.467-14.596-2.927-3.102zM65.38 13.643l-15.467-13.135-2.761 3.251 15.467 13.137 2.761-3.251z"></path>
</symbol>
<symbol id="icon-arrow-left" viewBox="0 0 34 32">
<path fill="#56597a" style="fill: var(--color4, #56597a)" opacity="0.6" d="M12.113 9.292c0.18 0.181 0.291 0.43 0.291 0.706 0 0.139-0.028 0.272-0.080 0.392l0.002-0.007c-0.052 0.126-0.124 0.234-0.214 0.325l0-0-5.245 5.292 5.245 5.292c0.181 0.181 0.293 0.432 0.293 0.708s-0.112 0.527-0.293 0.708v0c-0.18 0.18-0.429 0.292-0.703 0.292-0.136 0-0.266-0.027-0.384-0.077l0.007 0.002c-0.125-0.053-0.232-0.127-0.322-0.217l-0-0-5.945-5.999c-0.18-0.181-0.291-0.43-0.291-0.706 0-0.139 0.028-0.272 0.080-0.392l-0.002 0.007c0.053-0.126 0.125-0.234 0.216-0.325l-0 0 5.944-6.001c0.179-0.18 0.428-0.292 0.702-0.292 0.136 0 0.266 0.027 0.384 0.077l-0.007-0.002c0.12 0.051 0.229 0.125 0.32 0.219z"></path>
<path fill="#56597a" style="fill: var(--color4, #56597a)" opacity="0.6" d="M5.467 16c0-0.264 0.104-0.519 0.291-0.707 0.178-0.18 0.425-0.292 0.699-0.293h20.802c0.263 0 0.515 0.106 0.701 0.293 0.177 0.181 0.286 0.429 0.286 0.703 0 0.549-0.44 0.995-0.986 1.005h-20.801c-0.274-0-0.522-0.112-0.701-0.293l-0-0c-0.18-0.182-0.291-0.431-0.291-0.707v-0z"></path>
</symbol>
<symbol id="icon-arrow-right" viewBox="0 0 35 32">
<path fill="#f78cb6" style="fill: var(--color1, #f78cb6)" d="M21.961 9.293c0.189-0.182 0.446-0.294 0.729-0.294 0.004 0 0.009 0 0.013 0h-0.001c0.287 0.001 0.547 0.113 0.74 0.295l-0.001-0.001 6.273 5.999c0.191 0.176 0.31 0.428 0.31 0.708s-0.119 0.531-0.31 0.707l-0.001 0.001-6.272 6.001c-0.192 0.182-0.451 0.293-0.736 0.293-0.002 0-0.004 0-0.006-0h0c-0.001 0-0.001 0-0.002 0-0.286 0-0.546-0.112-0.738-0.295l0 0c-0.188-0.178-0.306-0.428-0.307-0.706v-0c0-0.266 0.111-0.521 0.307-0.708l5.536-5.293-5.536-5.292c-0.187-0.179-0.304-0.429-0.307-0.707v-0.001c0-0.001 0-0.002 0-0.003 0-0.278 0.118-0.528 0.307-0.704l0.001-0.001z"></path>
<path fill="#f78cb6" style="fill: var(--color1, #f78cb6)" d="M4.928 16c0-0.265 0.109-0.52 0.305-0.707 0.191-0.181 0.451-0.293 0.736-0.293 0.001 0 0.003 0 0.004 0h21.957c0.278 0 0.543 0.105 0.74 0.293 0.196 0.187 0.306 0.442 0.306 0.707-0.001 0.279-0.119 0.53-0.307 0.707l-0 0c-0.191 0.181-0.45 0.292-0.734 0.292-0.001 0-0.003 0-0.004 0h-21.957c-0.002 0-0.003 0-0.005 0-0.285 0-0.543-0.111-0.735-0.292l0 0c-0.188-0.178-0.305-0.429-0.306-0.708v-0z"></path>
</symbol>
<symbol id="icon-Deloitte-gray" viewBox="0 0 112 32">
<path fill="#c1c1c1" style="fill: var(--color5, #c1c1c1)" d="M105.593 23.425c0-1.611 1.328-2.938 2.94-2.938s2.94 1.326 2.94 2.938-1.328 2.938-2.94 2.938c-1.612 0.047-2.94-1.28-2.94-2.938zM11.509 15.653c0-1.848-0.379-3.27-1.091-4.17s-1.802-1.374-3.272-1.374h-1.565v11.42h1.186c1.613 0 2.845-0.474 3.603-1.469 0.759-0.947 1.138-2.417 1.138-4.407zM17.104 15.464c0 3.412-0.901 6.019-2.75 7.866s-4.41 2.748-7.73 2.748h-6.448v-20.376h6.876c3.177 0 5.643 0.853 7.398 2.512 1.802 1.658 2.655 4.075 2.655 7.25zM34.935 26.079h5.121v-20.472h-5.122v20.472zM47.265 18.449c0 1.327 0.19 2.322 0.521 2.985s0.901 1.043 1.707 1.043 1.375-0.332 1.707-1.043c0.332-0.663 0.474-1.658 0.474-2.985 0-1.28-0.142-2.274-0.474-2.938s-0.901-0.995-1.707-0.995c-0.807 0-1.328 0.331-1.708 0.995-0.332 0.616-0.521 1.611-0.521 2.938zM56.891 18.449c0 2.464-0.664 4.407-1.944 5.829-1.328 1.374-3.129 2.085-5.5 2.085-2.276 0-4.031-0.711-5.358-2.133-1.328-1.422-1.992-3.364-1.992-5.781 0-2.464 0.664-4.407 1.944-5.781 1.328-1.374 3.13-2.037 5.501-2.037 1.47 0 2.75 0.331 3.888 0.947s1.992 1.564 2.608 2.748c0.569 1.138 0.853 2.512 0.853 4.123zM58.93 26.079h5.121v-15.212h-5.121v15.212zM58.93 9.019h5.121v-3.412h-5.121v3.412zM74.437 22.193c0.711 0 1.517-0.19 2.466-0.521v3.838c-0.712 0.284-1.328 0.521-1.992 0.664-0.617 0.142-1.375 0.189-2.182 0.189-1.707 0-2.94-0.427-3.746-1.28-0.759-0.853-1.138-2.18-1.138-3.981v-6.255h-1.801v-3.98h1.801v-3.886l5.169-0.9v4.786h3.272v3.934h-3.272v5.923c0.048 0.995 0.522 1.47 1.423 1.47zM86.292 22.193c0.712 0 1.518-0.19 2.466-0.521v3.838c-0.711 0.284-1.328 0.521-1.992 0.664-0.616 0.142-1.375 0.189-2.181 0.189-1.707 0-2.94-0.427-3.699-1.28s-1.138-2.18-1.138-3.981v-6.255h-1.802v-3.98h1.802v-3.933l5.169-0.853v4.786h3.272v3.934h-3.272v5.923c0 0.995 0.474 1.47 1.375 1.47zM95.255 16.6c0.047-0.853 0.284-1.421 0.711-1.848 0.427-0.379 0.901-0.568 1.518-0.568 0.664 0 1.185 0.237 1.565 0.663s0.616 1.043 0.616 1.753h-4.41zM102.51 12.383c-1.233-1.185-2.94-1.801-5.169-1.801-2.371 0-4.173 0.663-5.406 2.037-1.28 1.374-1.897 3.365-1.897 5.924 0 2.464 0.664 4.407 2.039 5.734s3.272 2.037 5.785 2.037c1.186 0 2.229-0.095 3.083-0.237s1.66-0.427 2.466-0.853l-0.806-3.412c-0.569 0.237-1.138 0.427-1.66 0.521-0.759 0.189-1.565 0.284-2.466 0.284-0.996 0-1.754-0.237-2.323-0.711s-0.854-1.137-0.901-1.99h9.152v-2.322c-0.095-2.275-0.712-4.028-1.897-5.213zM23.933 16.6c0.047-0.853 0.284-1.421 0.711-1.848 0.427-0.379 0.901-0.568 1.518-0.568 0.664 0 1.186 0.237 1.565 0.663s0.569 1.043 0.617 1.753h-4.411zM31.142 12.383c-1.233-1.185-2.94-1.801-5.169-1.801-2.372 0-4.173 0.663-5.406 2.037s-1.897 3.365-1.897 5.924c0 2.464 0.664 4.407 2.039 5.734s3.272 2.037 5.737 2.037c1.186 0 2.229-0.095 3.083-0.237s1.66-0.427 2.466-0.853l-0.806-3.412c-0.569 0.237-1.138 0.427-1.66 0.521-0.759 0.189-1.565 0.284-2.466 0.284-0.996 0-1.755-0.237-2.323-0.711s-0.853-1.137-0.901-1.99h9.152v-2.322c0-2.275-0.617-4.028-1.849-5.213z"></path>
</symbol>
<symbol id="icon-portfolio-p" viewBox="0 0 32 32">
<path fill="#f78cb6" style="fill: var(--color1, #f78cb6); stroke: var(--color1, #f78cb6)" stroke="#f78cb6" stroke-linejoin="miter" stroke-linecap="butt" stroke-miterlimit="4" stroke-width="0.3333" d="M31.832 26.965v0-17.759h0c0.042-1.502-1.142-2.754-2.644-2.796v0c-0.062-0.002-0.125-0.001-0.187 0.001l-0.007 0v-0h-6.527v-1.381h0c0.041-1.567-1.196-2.87-2.763-2.911l12.128 24.845zM31.832 26.965v0zM12.371 2.119h-0c-1.567-0.001-2.838 1.27-2.839 2.837l2.839-2.837zM12.371 2.119h7.258c0.025 0 0.050 0 0.075 0.001l-7.333-0.001zM9.533 5.035h-0v1.376l-6.534-0c-1.502-0.061-2.769 1.106-2.83 2.607l9.364-3.983zM9.533 5.035l-0-0.005M9.533 5.035l-0-0.005M9.533 5.030c-0.001-0.024-0.001-0.049-0.001-0.074l0.001 0.074zM0.168 9.21h-0v17.759h-0c-0.041 1.567 1.196 2.87 2.763 2.911 0 0 0 0 0 0l-0.004 0.167-2.759-20.836zM0.168 9.21l-0-0.005M0.168 9.21l-0-0.005M0.168 9.206c-0.002-0.062-0.001-0.125 0.001-0.187l-0.001 0.187zM12.282 3.349h0c0.029-0.002 0.059-0.002 0.089-0.002M12.282 3.349l7.347 0.164v-0.167h-0c-0 0-0 0-0 0h-7.258M12.282 3.349c-0.887 0.048-1.567 0.804-1.521 1.691l1.521-1.691zM12.371 3.346h0c-0 0-0 0-0 0zM29.083 28.651h-0c-0.029 0.002-0.059 0.002-0.089 0.002M29.083 28.651l-0.089-0.164M29.083 28.651c0.887-0.048 1.567-0.804 1.521-1.691v-5.415l-0.258 0.168c-0.398 0.26-0.869 0.387-1.344 0.363v-0h-8.096v2.417c-0.065 0.385-0.385 0.677-0.776 0.705h-8.261c-0.39-0.028-0.711-0.32-0.776-0.705v-2.417l-8.096 0c-0.475 0.024-0.946-0.103-1.344-0.363l-0.258-0.168v5.415c-0.001 0.028-0.002 0.056-0.002 0.085M29.083 28.651l-26.078-0.164M28.994 28.654l0-0.167M28.994 28.654h0v-0.167M28.994 28.654h-25.988M28.994 28.487h-25.988M3.006 28.654l-0-0.167M3.006 28.654h-0v-0.167M3.006 28.654c-0.889 0.001-1.611-0.719-1.613-1.608M1.393 27.046c0 0 0-0 0-0v0c0 0 0-0 0-0zM29.083 20.847h-0c-0.029 0.002-0.059 0.002-0.089 0.002M29.083 20.847l-0.089-0.164M29.083 20.847c0.887-0.048 1.567-0.804 1.521-1.691M29.083 20.847l1.521-1.691M28.994 20.849l0-0.167M28.994 20.849h0v-0.167M28.994 20.849h-8.088v-1.845c0-0.139-0.080-0.259-0.229-0.351-0.151-0.094-0.353-0.146-0.541-0.146h-8.272c-0.188 0-0.391 0.052-0.541 0.146-0.149 0.093-0.229 0.212-0.229 0.351v1.845h-8.088M28.994 20.683h-7.921v-1.678c0-0.429-0.507-0.663-0.937-0.663h-8.272c-0.429 0-0.937 0.234-0.937 0.663v1.678h-7.921M3.006 20.849l-0-0.167M3.006 20.849h-0v-0.167M3.006 20.849c-0.889 0.001-1.611-0.719-1.613-1.608M3.006 20.683c-0.797 0.001-1.445-0.644-1.446-1.442M1.56 19.241l-0.167 0c0 0 0 0 0 0M1.56 19.241c-0-0.027 0.001-0.053 0.002-0.080M1.56 19.241l0.002-0.080M1.56 19.241l-0.167 0c0 0 0-0 0-0M1.56 19.241l-0.167 0M1.562 19.161v0zM1.395 9.215c-0.049-0.821 0.576-1.527 1.397-1.579v0c0.074-0.005 0.147-0.004 0.221 0.002h25.974c0.818-0.070 1.54 0.534 1.614 1.353M1.395 9.215l29.043-0.005M1.395 9.215v0zM30.601 8.992v0c0 0 0 0 0 0zM30.601 8.992c0.007 0.074 0.008 0.149 0.003 0.223M30.605 9.215v-0.005h-0.167M30.605 9.215v9.941M30.605 9.215c-0 0.002-0 0.004-0 0.005l-0.166-0.010M30.438 9.21l0.167 9.946M12.321 23.804v0.167h7.357v-4.235h-7.357v4.069z"></path>
</symbol>
<symbol id="icon-diamond" viewBox="0 0 32 32">
<path fill="#f78cb6" style="fill: var(--color1, #f78cb6); stroke: var(--color1, #f78cb6)" stroke="#f78cb6" stroke-linejoin="miter" stroke-linecap="butt" stroke-miterlimit="4" stroke-width="0.3636" d="M3.504 13.29l0.076 0.047 0.096-0.154-0.097-0.154-0.076 0.047-3.062-1.905c-0.266-0.168-0.441-0.461-0.441-0.794v-0h0.182c0 0.26 0.135 0.502 0.356 0.64l3.481 2.167-0.247 0.154-3.235 2.022c-0.215 0.136-0.355 0.372-0.355 0.641s0.141 0.506 0.353 0.64l0.003 0.002 3.481 2.167-0.247 0.154-3.235 2.022c-0.214 0.136-0.354 0.372-0.354 0.641s0.14 0.505 0.351 0.639l0.003 0.002-0.093 0.148 0.092-0.148 15.063 9.436c0.114 0.073 0.253 0.116 0.401 0.116s0.288-0.043 0.405-0.117l-0.003 0.002 15.062-9.437c0.214-0.136 0.354-0.372 0.354-0.64 0-0.27-0.142-0.508-0.355-0.641l-0.003-0.002-3.502-2.159 0.249-0.156 3.256-2.026 0.082 0.132-0.082-0.131c0.215-0.136 0.356-0.372 0.356-0.642 0-0.271-0.142-0.508-0.356-0.642l-0.003-0.002-3.502-2.159 3.505-2.181c0.216-0.136 0.357-0.372 0.357-0.642s-0.14-0.505-0.351-0.639l-0.003-0.002 0.095-0.152-0.095 0.153-15.063-9.438c-0.114-0.072-0.253-0.115-0.401-0.115s-0.288 0.043-0.405 0.117l0.003-0.002-15.062 9.438c-0.215 0.136-0.355 0.372-0.355 0.641 0 0 0 0 0 0v-0l3.322 2.915zM2.611 10.218l-0.247 0.155 0.247 0.153 13.39 8.333 0.096-0.060 13.54-8.427-13.636-8.544-0.097 0.061-13.292 8.328zM29.383 21.785l0.248-0.155-3.107-1.915-0.095 0.058-10.029 6.243c-0.113 0.072-0.251 0.114-0.399 0.114s-0.286-0.043-0.402-0.116l0.003 0.002-10.153-6.319-0.097 0.060-2.99 1.868 13.639 8.545 0.097-0.060 13.285-8.325zM15.904 24.425l0.096 0.060 0.096-0.060 13.532-8.423-3.104-1.913-0.095 0.060-10.029 6.241c-0.113 0.072-0.251 0.114-0.399 0.114s-0.286-0.043-0.402-0.116l0.003 0.002-10.153-6.319-0.097 0.060-2.986 1.866 0.247 0.154 13.292 8.273z"></path>
</symbol>
<symbol id="icon-diamond-g" viewBox="0 0 32 32">
<path fill="#f78cb6" style="fill: var(--color1, #f78cb6); stroke: var(--color1, #f78cb6)" stroke="#f78cb6" stroke-linejoin="miter" stroke-linecap="butt" stroke-miterlimit="4" stroke-width="0.3636" d="M27.962 13.2l0.25-0.155 3.257-2.027c0.216-0.136 0.357-0.372 0.357-0.642s-0.14-0.505-0.352-0.639l-0.003-0.002 0.096-0.154-0.097 0.154-15.064-9.438c-0.114-0.072-0.253-0.115-0.402-0.115s-0.288 0.043-0.405 0.117l0.003-0.002-15.065 9.438c-0.215 0.136-0.355 0.372-0.355 0.641 0 0 0 0 0 0v-0l27.78 2.822zM27.962 13.2l0.25 0.154M27.962 13.2l0.25 0.154M31.564 16.799l-0.096-0.154-3.505 2.182 0.25 0.153 3.253 2.005c0.217 0.136 0.359 0.373 0.359 0.644 0 0.268-0.14 0.504-0.351 0.639l-0.003 0.002-15.065 9.438 0.096 0.154-0.096-0.153c-0.114 0.073-0.253 0.116-0.402 0.116s-0.288-0.043-0.405-0.117l0.003 0.002-15.065-9.44-0.097 0.154 0.096-0.154c-0.214-0.136-0.355-0.372-0.355-0.641s0.141-0.505 0.352-0.639l0.003-0.002 3.483-2.176-0.247-0.154-3.234-2.012c-0.215-0.136-0.356-0.372-0.356-0.642s0.14-0.505 0.351-0.639l0.003-0.002 3.483-2.176-0.247-0.154-3.234-2.013c-0.215-0.135-0.356-0.371-0.356-0.64v-0l31.382 6.42zM31.564 16.799l-0.096-0.154c0.215-0.136 0.356-0.372 0.356-0.642 0-0.271-0.142-0.508-0.356-0.642l-0.003-0.002-3.253-2.005M31.564 16.799l-3.352-3.444M2.611 10.22l-0.247 0.155 0.247 0.153 13.392 8.335 0.096-0.060 13.542-8.429-13.639-8.546-0.097 0.061-13.295 8.33zM29.388 21.79l0.248-0.155-3.107-1.915-0.095 0.058-10.031 6.244c-0.113 0.072-0.251 0.114-0.399 0.114s-0.286-0.043-0.402-0.116l0.003 0.002-10.155-6.32-0.097 0.060-2.99 1.869 13.641 8.547 0.097-0.060 13.288-8.327zM15.907 24.43l0.096 0.060 0.096-0.060 13.534-8.424-3.105-1.913-0.095 0.060-10.031 6.243c-0.113 0.072-0.251 0.114-0.399 0.114s-0.286-0.043-0.402-0.116l0.003 0.002-10.155-6.32-0.097 0.060-2.987 1.867 0.247 0.154 13.294 8.274z"></path>
</symbol>
<symbol id="icon-Down-Arrow" viewBox="0 0 32 32">
<path fill="#fff" style="fill: var(--color3, #fff)" d="M14.904 26.092c0.244 0.349 0.643 0.575 1.096 0.575s0.852-0.226 1.093-0.571l0.003-0.004 12-17.332c0.149-0.212 0.238-0.476 0.238-0.76 0-0.736-0.596-1.332-1.332-1.332-0.001 0-0.001 0-0.002 0h-24c-0.735 0.003-1.33 0.6-1.33 1.336 0 0.283 0.088 0.545 0.237 0.76l-0.003-0.004 12 17.332z"></path>
</symbol>
<symbol id="icon-facebook" viewBox="0 0 32 32">
<path fill="#a7a7a7" style="fill: var(--color6, #a7a7a7)" d="M28.251 0h-24.503c-2.069 0.003-3.745 1.68-3.749 3.748v24.503c0.003 2.069 1.68 3.745 3.748 3.749h24.503c2.069-0.003 3.745-1.68 3.749-3.748v-24.503c-0.003-2.069-1.68-3.745-3.748-3.749h-0zM29.501 28.251c0 0.687-0.562 1.25-1.25 1.25h-7.127v-10.188h3.863l0.637-3.875h-4.5v-2.688c0-1.061 0.815-1.874 1.874-1.874h2.563v-3.875h-2.562c0 0 0 0 0 0-3.175 0-5.749 2.574-5.749 5.749 0 0.004 0 0.008 0 0.011v-0.001 2.677h-3.75v3.875h3.752v10.187h-13.501c-0.69-0.001-1.249-0.56-1.25-1.249v-24.5c0-0.689 0.561-1.25 1.25-1.25h24.5c0.689 0 1.25 0.561 1.25 1.25v24.5z"></path>
</symbol>
<symbol id="icon-ferrary" viewBox="0 0 117 32">
<path fill="#c1c1c1" style="fill: var(--color5, #c1c1c1)" d="M0 28.36c0-0.26 0.211-0.47 0.47-0.47h0.882c0.677 0 2.029-0.15 2.029-1.958v-16.272c0-0.979-0.067-3.315-1.758-3.315h-0.908c-0.26-0-0.47-0.211-0.47-0.47 0-0.052 0.009-0.102 0.024-0.149l-0.001 0.003 1.452-4.448c0.064-0.189 0.239-0.324 0.446-0.324h103.244c0.26 0 0.47 0.21 0.47 0.47v4.448c0 0.26-0.211 0.47-0.47 0.47v0h-95.265c-0.88 0-2.029 0.226-2.029 2.184v5.123c0.203 0.603 1.015 0.828 1.421 0.828 0.38 0 1.652-0.066 1.81-2.123 0.016-0.244 0.217-0.436 0.463-0.438h1.112c0.26 0 0.47 0.211 0.47 0.47v7.421c0 0.26-0.211 0.47-0.47 0.47v0h-1.15c-0.222-0.001-0.407-0.155-0.456-0.361l-0.001-0.003c-0.18-0.738-0.85-1.665-1.71-1.745-0.811-0.075-1.488 0.226-1.488 1.432v6.327c0 0.678 0.744 1.959 2.503 1.959h0.747c0.26 0 0.47 0.211 0.47 0.47v2.92c0 0.26-0.211 0.47-0.47 0.47v0h-10.897c0 0 0 0 0 0-0.26 0-0.47-0.21-0.47-0.47v-2.919z"></path>
<path fill="#c1c1c1" style="fill: var(--color5, #c1c1c1)" d="M69.044 12.523v8.287h-4.734v-4.002s-0.202-1.432-0.879-1.507c-0.014-0.001-0.031-0.002-0.048-0.002-0.040 0-0.080 0.004-0.118 0.012l0.004-0.001c-0.757 0.138-2.307 1.552-2.746 2.25v9.049c0 1.191 0.893 1.603 1.408 1.741 0.207 0.054 0.35 0.24 0.35 0.454v2.476c-0 0.259-0.21 0.469-0.469 0.47h-7.312c-0.259-0.001-0.469-0.21-0.47-0.469v-2.504c0-0.234 0.173-0.429 0.406-0.464 0.675-0.1 1.296-0.498 1.353-1.629v-12.729c0-0.188-0.134-0.548-0.423-0.858-0.249-0.272-0.582-0.464-0.956-0.538l-0.011-0.002c-0.211-0.046-0.368-0.231-0.368-0.453 0-0.002 0-0.003 0-0.005v0-1.365c0-0.26 0.211-0.47 0.47-0.47h5.165c0.205 0 0.377 0.135 0.448 0.327 0.176 0.48 0.687 0.903 1.020 1.027 0.475-0.377 2.976-1.959 4.936-1.959 1.963 0 2.977 1.13 2.977 2.863zM116.675 10.734v1.371c-0.001 0.225-0.159 0.412-0.371 0.458l-0.003 0.001c-0.738 0.157-1.385 0.767-1.385 1.542v12.504c0 0.9 0.694 1.582 1.401 1.761 0.209 0.054 0.357 0.24 0.357 0.456v2.454c0 0.26-0.211 0.47-0.47 0.47v0h-7.311c-0.26 0-0.47-0.211-0.47-0.47v0-2.579c0-0 0-0.001 0-0.001 0-0.206 0.133-0.382 0.319-0.444l0.003-0.001c0.152-0.049 0.341-0.124 0.531-0.233 0.432-0.244 0.872-0.658 0.905-1.337v-12.73c0-0.188-0.134-0.548-0.423-0.858-0.249-0.272-0.582-0.464-0.956-0.538l-0.011-0.002c-0.211-0.046-0.368-0.231-0.368-0.453 0-0.002 0-0.003 0-0.005v0-1.366c0-0.26 0.211-0.47 0.47-0.47h7.311c0.26 0 0.47 0.21 0.47 0.47zM50.783 12.523v7.817c-0 0.259-0.211 0.47-0.47 0.47 0 0 0 0 0 0h-3.794c0 0 0 0 0 0-0.26 0-0.47-0.21-0.47-0.47v-3.531s-0.202-1.432-0.88-1.507c-0.014-0.001-0.031-0.002-0.048-0.002-0.040 0-0.079 0.004-0.116 0.012l0.004-0.001c-0.714 0.128-2.13 1.386-2.659 2.119-0.056 0.076-0.089 0.172-0.089 0.275v0 8.904c0 0.528 0.238 0.98 0.577 1.3 0.24 0.226 0.53 0.387 0.823 0.461 0.21 0.053 0.359 0.238 0.359 0.455v2.454c0 0.26-0.211 0.47-0.47 0.47v0h-7.311c-0.26 0-0.47-0.211-0.47-0.47v0-2.502c0-0.234 0.173-0.43 0.406-0.464 0.285-0.037 0.541-0.141 0.758-0.295l-0.005 0.003c0.33-0.244 0.564-0.658 0.6-1.337v-12.73c0-0.188-0.136-0.548-0.423-0.858-0.246-0.267-0.572-0.457-0.939-0.534l-0.011-0.002c-0.219-0.043-0.383-0.233-0.385-0.461v-1.366c0-0.26 0.211-0.47 0.47-0.47h5.163c0.204 0 0.377 0.135 0.447 0.327 0.177 0.479 0.69 0.903 1.022 1.026 0.473-0.376 2.977-1.958 4.937-1.958s2.976 1.13 2.976 2.863zM105.652 12.523v8.287h-4.734v-4.001s-0.205-1.432-0.88-1.507c-0.016-0.002-0.035-0.003-0.054-0.003-0.047 0-0.092 0.006-0.135 0.018l0.004-0.001c-0.002-0.002-0.004 0-0.007 0-0.771 0.171-2.282 1.556-2.718 2.245v9.049c0 0.623 0.219 1.032 0.501 1.3s0.627 0.394 0.886 0.454c0.217 0.051 0.371 0.237 0.371 0.46v2.457c0 0.26-0.211 0.47-0.47 0.47v0h-7.311c-0.259-0.001-0.469-0.211-0.47-0.47v-2.503c0-0.233 0.174-0.428 0.407-0.463 0.674-0.101 1.295-0.499 1.351-1.63v-12.729c0-0.499-0.216-0.823-0.493-1.034-0.282-0.211-0.625-0.31-0.884-0.357-0.218-0.043-0.38-0.233-0.38-0.46 0-0.001 0-0.002 0-0.003v0-1.366c0-0.26 0.211-0.47 0.47-0.47h5.15c0.219 0 0.407 0.15 0.458 0.362 0.097 0.402 0.356 0.992 1.023 0.992 0.475-0.376 2.976-1.958 4.938-1.958 1.961 0 2.977 1.13 2.977 2.863zM27.932 24.274c-0.26 0-0.47 0.211-0.47 0.47v0 0.772c0 0.829-0.135 1.282-2.367 1.282s-2.908-1.657-2.908-2.863v-2.224c0-0.377 0.271-0.228 0.744-0.228h8.796c0.259-0 0.47-0.211 0.47-0.47 0 0 0 0 0 0v0-5.704c0-2.486-0.473-3.239-1.42-4.294s-4.261-1.356-5.75-1.356c-3.788 0-5.005 0.603-6.087 1.582s-1.488 3.013-1.488 4.519v8.512c0 2.26 0.484 3.875 1.692 5.373 1.682 2.086 5.207 2.085 6.018 2.085s3.518 0.076 5.479-1.506c1.576-1.272 1.624-4.344 1.582-5.5-0.010-0.251-0.216-0.451-0.468-0.451-0.001 0-0.001 0-0.002 0h-3.821zM22.186 15.457c0-0.75 0.338-1.876 2.705-1.876s2.57 1.22 2.57 1.876v1.689c0 0.281-0.339 0.563-0.811 0.563h-3.653c-0.406 0-0.811-0.234-0.811-0.516v-1.735zM86.442 26.609v-11.3c0-1.732-0.067-3.54-1.691-4.821s-4.261-1.206-5.276-1.206-4.396 0-5.952 1.959c-1.555 1.959-1.285 3.841-1.285 4.595h4.835s-0.1-0.804 0.508-1.482c0.612-0.682 2.233-1.431 3.484-0.226 0.461 0.444 0.642 1.017 0.642 1.657v1.482c0 0.301-0.271 0.753-0.609 0.753 0 0-6.155 0.151-7.237 1.055s-2.029 1.506-2.029 4.822c0 3.314 0.744 5.744 1.623 6.422 0.88 0.677 1.285 1.431 5.276 1.431h9.469v-3.334c-0.811 0-1.758-0.753-1.758-1.808zM81.707 26.606c0 0.103-0.271 0.248-0.473 0.248h-2.334c-1.657 0-2.131-0.866-2.131-1.402v-1.588c0-1.546 2.638-1.505 3.686-1.505s1.252 0.536 1.252 0.886v3.361zM112.55 6.308c2.368 0 4.287-1.357 4.287-3.030s-1.919-3.029-4.287-3.029c-2.367 0-4.287 1.356-4.287 3.029s1.919 3.029 4.287 3.029zM11.836 28.361v2.919c0 0 0 0 0 0 0 0.259-0.21 0.47-0.47 0.47h-2.117v-4.182c0.359 0.195 0.813 0.322 1.368 0.322h0.748c0 0 0 0 0.001 0 0.259 0 0.469 0.21 0.469 0.469 0 0.001 0 0.001 0 0.002v-0zM10.806 13.931v4.978c0.251 0.314 0.429 0.683 0.51 1.014 0.051 0.211 0.238 0.359 0.455 0.359h1.151c0.26 0 0.47-0.211 0.47-0.47v0-7.42c0-0.26-0.211-0.47-0.47-0.47v0h-1.106c-0.001 0-0.002 0-0.003 0-0.244 0-0.445 0.187-0.466 0.426l-0 0.002c-0.057 0.776-0.273 1.27-0.541 1.584zM103.295 0.958v5.388h2.116c0 0 0 0 0 0 0.26 0 0.47-0.21 0.47-0.47v-4.448c0-0.26-0.211-0.47-0.47-0.47v0h-2.116z"></path>
<path fill="#c1c1c1" style="fill: var(--color5, #c1c1c1)" d="M66.069 9.66c-0.423 0-0.871 0.077-1.319 0.196 1.129 0.394 1.709 1.357 1.709 2.667v8.286h2.586v-8.286c0-1.733-1.015-2.863-2.977-2.863zM114.916 14.105v12.504c0 0.9 0.694 1.582 1.401 1.762 0.209 0.054 0.357 0.24 0.357 0.455v2.454c0 0 0 0 0 0.001 0 0.259-0.21 0.47-0.47 0.47-0 0-0.001 0-0.001 0h-2.116v-3.334c-0.811 0-1.758-0.752-1.758-1.808v-12.504c0-0.776 0.647-1.384 1.385-1.542 0.215-0.046 0.373-0.233 0.374-0.458v-1.841h2.116c0 0 0.001 0 0.001 0 0.259 0 0.469 0.21 0.469 0.469 0 0.001 0 0.001 0 0.002v-0 1.371c-0.001 0.225-0.159 0.412-0.371 0.458l-0.003 0.001c-0.738 0.157-1.385 0.767-1.385 1.542zM42.35 17.43c-0.056 0.076-0.089 0.172-0.089 0.275 0 0 0 0 0 0v0 8.903c0 0.529 0.238 0.981 0.577 1.3 0.24 0.227 0.529 0.387 0.822 0.461 0.211 0.054 0.36 0.238 0.36 0.455v2.454c0 0.26-0.211 0.47-0.47 0.47h-2.116v-3.334c-0.811 0-1.758-0.752-1.758-1.808v-7.171c0-2.694 4.2-4.080 5.343-4.139-0.004 0.002-0.007 0.007-0.010 0.012-0.714 0.129-2.13 1.387-2.659 2.119zM60.522 17.561v9.049c0 1.191 0.893 1.603 1.408 1.741 0.208 0.054 0.35 0.24 0.35 0.454v2.475c0 0.26-0.211 0.47-0.47 0.47v0h-2.118v-2.925c0-0.217-0.149-0.402-0.359-0.455-0.707-0.179-1.399-0.86-1.399-1.761v-7.172c0-2.692 4.199-4.079 5.343-4.138-0.004 0.002-0.007 0.007-0.009 0.012-0.757 0.138-2.306 1.551-2.746 2.249zM99.874 15.3c-0.005 0.002-0.007 0.007-0.010 0.012-0.004 0-0.007 0.002-0.012 0.004-0.002-0.002-0.004 0-0.007 0-0.771 0.171-2.282 1.556-2.718 2.245v9.049c0 0.623 0.219 1.032 0.501 1.3s0.627 0.394 0.886 0.454c0.217 0.051 0.371 0.237 0.371 0.46v2.457c0 0.26-0.211 0.47-0.47 0.47v0h-2.127v-2.925c0-0.216-0.15-0.402-0.36-0.455-0.708-0.179-1.398-0.859-1.398-1.762v-7.172c0-2.691 4.198-4.078 5.343-4.138zM47.806 9.66c-0.423 0-0.871 0.077-1.319 0.196 1.129 0.394 1.709 1.357 1.709 2.667v8.286h2.116c0 0 0 0 0 0 0.26 0 0.47-0.21 0.47-0.47v-7.816c0-1.733-1.015-2.863-2.977-2.863zM102.675 9.66c-0.423 0-0.872 0.077-1.319 0.196 1.129 0.394 1.709 1.357 1.709 2.667v8.286h2.586v-8.286c0-1.733-1.015-2.863-2.976-2.863zM28.19 11.004c0.947 1.054 1.42 1.808 1.42 4.294v6.175h2.116c0 0 0 0 0 0 0.259 0 0.47-0.21 0.47-0.47v-5.705c0-2.486-0.473-3.239-1.42-4.294s-4.261-1.356-5.75-1.356c-0.56 0-1.064 0.014-1.52 0.039 1.642 0.109 3.923 0.47 4.683 1.317zM31.752 24.274h-2.143s0.406 4.369-1.555 5.951c-1.293 1.042-2.905 1.364-4.089 1.463 0.541 0.043 0.973 0.044 1.196 0.044 0.811 0 3.518 0.075 5.479-1.507 1.577-1.271 1.624-4.343 1.582-5.5-0.009-0.251-0.216-0.452-0.469-0.452-0 0-0.001 0-0.001 0h0zM86.442 26.609v-11.3c0-1.732-0.067-3.54-1.691-4.821s-4.261-1.206-5.276-1.206c-0.25 0-0.644 0-1.119 0.030 1.202 0.073 2.729 0.324 3.809 1.176 1.623 1.28 1.691 3.088 1.691 4.821v11.3c0 1.055 0.947 1.808 1.758 1.808v3.334h2.586v-3.334c-0.812 0-1.759-0.753-1.759-1.808zM112.55 0.249c-0.45 0-0.885 0.050-1.293 0.141 1.735 0.387 2.994 1.533 2.994 2.888s-1.258 2.5-2.994 2.888c0.408 0.092 0.842 0.141 1.293 0.141 2.368 0 4.287-1.357 4.287-3.030s-1.919-3.029-4.287-3.029z"></path>
</symbol>
<symbol id="icon-instagram" viewBox="0 0 32 32">
<path fill="#a7a7a7" style="fill: var(--color6, #a7a7a7)" d="M23.338 0h-14.676c-4.781 0.006-8.656 3.88-8.662 8.661v14.677c0.006 4.781 3.88 8.656 8.661 8.662h14.677c4.781-0.006 8.656-3.88 8.662-8.661v-14.677c-0.006-4.781-3.88-8.656-8.661-8.662h-0.001zM30.124 23.338c-0.004 3.746-3.040 6.781-6.785 6.785h-14.677c-3.746-0.004-6.781-3.040-6.785-6.785v-14.677c0.004-3.746 3.040-6.781 6.785-6.785h14.677c3.746 0.004 6.781 3.040 6.785 6.785v14.677z"></path>
<path fill="#a7a7a7" style="fill: var(--color6, #a7a7a7)" d="M16 7.249c-4.83 0.006-8.744 3.92-8.749 8.75v0c0.006 4.83 3.919 8.743 8.749 8.749h0.001c4.83-0.006 8.743-3.919 8.749-8.749v-0.001c-0.005-4.83-3.919-8.745-8.749-8.751h-0.001zM16 22.874c-3.795-0.004-6.87-3.079-6.874-6.874v-0c0.004-3.795 3.079-6.87 6.874-6.874h0c3.795 0.004 6.87 3.079 6.874 6.874v0c-0.004 3.795-3.079 6.87-6.874 6.874h-0zM24.96 4.143c-1.428 0.002-2.585 1.159-2.586 2.586v0c0 1.425 1.159 2.585 2.585 2.585 1.427-0.002 2.584-1.158 2.586-2.585v-0c-0.002-1.428-1.159-2.585-2.586-2.586h-0zM24.96 7.437c-0.392 0-0.71-0.318-0.71-0.71s0.318-0.71 0.71-0.71v0c0.392 0 0.71 0.318 0.71 0.71s-0.318 0.71-0.71 0.71v0z"></path>
</symbol>
<symbol id="icon-Mail" viewBox="0 0 32 32">
<path fill="#d2d2d2" style="fill: var(--color7, #d2d2d2)" d="M26.666 5.334h-21.332c-1.467 0-2.654 1.199-2.654 2.666l-0.013 16c0 1.465 1.201 2.666 2.668 2.666h21.332c1.467 0 2.668-1.199 2.668-2.666v-16c0-1.465-1.201-2.666-2.668-2.666zM26.666 24h-21.332v-13.334l10.666 6.668 10.666-6.668v13.334zM16 14.666l-10.666-6.666h21.332l-10.666 6.666z"></path>
</symbol>
<symbol id="icon-microsoft" viewBox="0 0 149 32">
<path fill="#c1c1c1" style="fill: var(--color5, #c1c1c1)" d="M148.432 14.488v-2.616h-3.238v-4.057l-0.104 0.035-3.042 0.93-0.058 0.023v3.070h-4.805v-1.709c0-0.802 0.174-1.406 0.534-1.813 0.348-0.407 0.847-0.605 1.486-0.605 0.453 0 0.929 0.104 1.404 0.325l0.117 0.059v-2.767l-0.059-0.023c-0.441-0.163-1.045-0.244-1.799-0.244-0.94 0-1.799 0.209-2.553 0.616-0.744 0.403-1.341 0.994-1.742 1.71l-0.011 0.022c-0.406 0.744-0.615 1.592-0.615 2.546v1.883h-2.252v2.616h2.252v11.010h3.238v-11.010h4.805v6.999c0 2.883 1.358 4.337 4.027 4.337 0.441 0 0.906-0.046 1.37-0.152 0.476-0.104 0.813-0.209 0.998-0.314l0.046-0.023v-2.651l-0.127 0.094c-0.187 0.12-0.404 0.216-0.635 0.275l-0.016 0.003c-0.189 0.058-0.407 0.096-0.633 0.104l-0.005 0c-0.627 0-1.091-0.174-1.381-0.5-0.29-0.337-0.441-0.93-0.441-1.744v-6.429h3.238zM124.463 23.173c-1.172 0-2.101-0.396-2.75-1.163-0.662-0.767-0.987-1.872-0.987-3.278 0-1.442 0.337-2.569 0.987-3.36 0.65-0.779 1.566-1.174 2.728-1.174 1.125 0 2.020 0.383 2.658 1.128 0.638 0.756 0.975 1.872 0.975 3.337 0 1.476-0.302 2.615-0.917 3.371s-1.521 1.14-2.693 1.14zM124.603 11.547c-2.24 0-4.027 0.663-5.293 1.954-1.265 1.303-1.915 3.093-1.915 5.336 0 2.128 0.627 3.848 1.869 5.093 1.242 1.255 2.925 1.883 5.014 1.883 2.171 0 3.924-0.663 5.189-1.988 1.266-1.314 1.915-3.093 1.915-5.29 0-2.162-0.603-3.894-1.799-5.138-1.196-1.221-2.867-1.848-4.98-1.848zM112.183 11.547c-1.52 0-2.786 0.396-3.749 1.163-0.975 0.779-1.463 1.79-1.463 3.022 0 0.64 0.104 1.209 0.313 1.685 0.21 0.488 0.534 0.907 0.964 1.268 0.429 0.349 1.091 0.721 1.973 1.105 0.743 0.302 1.288 0.558 1.637 0.766 0.336 0.198 0.58 0.396 0.719 0.594 0.128 0.186 0.197 0.453 0.197 0.767 0 0.918-0.685 1.36-2.089 1.36-0.523 0-1.115-0.104-1.765-0.325-0.691-0.23-1.291-0.541-1.83-0.932l0.019 0.013-0.139-0.093v3.128l0.046 0.023c0.453 0.21 1.033 0.396 1.718 0.535s1.3 0.21 1.834 0.21c1.659 0 2.983-0.395 3.958-1.163 0.974-0.779 1.474-1.826 1.474-3.093 0-0.918-0.267-1.709-0.789-2.337s-1.427-1.209-2.693-1.72c-1.010-0.407-1.648-0.744-1.915-1-0.255-0.244-0.382-0.605-0.382-1.047 0-0.395 0.162-0.709 0.487-0.965 0.337-0.256 0.802-0.395 1.381-0.395 0.534 0 1.091 0.082 1.637 0.256 0.543 0.161 1.017 0.387 1.447 0.675l-0.019-0.012 0.128 0.092v-2.964l-0.046-0.024c-0.372-0.163-0.859-0.29-1.451-0.407-0.479-0.112-1.031-0.179-1.597-0.186l-0.005-0zM98.533 23.173c-1.173 0-2.101-0.396-2.751-1.163-0.661-0.767-0.987-1.872-0.987-3.278 0-1.442 0.337-2.569 0.987-3.36 0.65-0.779 1.567-1.174 2.728-1.174 1.126 0 2.020 0.383 2.658 1.128 0.638 0.756 0.974 1.872 0.974 3.337 0 1.476-0.302 2.615-0.917 3.371s-1.509 1.14-2.693 1.14zM98.672 11.547c-2.24 0-4.027 0.663-5.292 1.954-1.266 1.303-1.915 3.104-1.915 5.349 0 2.127 0.627 3.848 1.869 5.092 1.242 1.256 2.925 1.883 5.014 1.883 2.171 0 3.923-0.663 5.189-1.989 1.265-1.314 1.915-3.092 1.915-5.289 0-2.162-0.603-3.895-1.799-5.139-1.195-1.232-2.867-1.86-4.98-1.86zM86.555 14.233v-2.36h-3.192v13.614h3.192v-6.964c0-1.186 0.267-2.162 0.801-2.895 0.522-0.72 1.218-1.093 2.066-1.093 0.29 0 0.615 0.046 0.963 0.139s0.592 0.198 0.743 0.302l0.139 0.093v-3.232l-0.046-0.023c-0.302-0.128-0.72-0.186-1.253-0.186-0.011-0-0.023-0-0.036-0-0.803 0-1.537 0.29-2.105 0.771l0.005-0.004c-0.546 0.453-0.928 1.058-1.23 1.825l-0.046 0.012zM77.628 11.547c-1.463 0-2.773 0.314-3.888 0.942-1.099 0.618-1.976 1.518-2.549 2.604l-0.017 0.035c-0.581 1.128-0.882 2.442-0.882 3.918 0 1.291 0.29 2.465 0.859 3.511s1.369 1.86 2.391 2.418c1.021 0.57 2.194 0.849 3.494 0.849 1.52 0 2.82-0.302 3.853-0.907l0.046-0.024v-2.93l-0.139 0.093c-0.45 0.331-0.969 0.607-1.525 0.801l-0.041 0.013c-0.569 0.198-1.080 0.302-1.532 0.302-1.253 0-2.263-0.396-2.994-1.174-0.731-0.779-1.103-1.872-1.103-3.244 0-1.384 0.383-2.499 1.149-3.325s1.776-1.243 2.995-1.243c1.056 0 2.078 0.36 3.041 1.058l0.139 0.093v-3.093l-0.046-0.023c-0.36-0.21-0.859-0.373-1.474-0.5-0.603-0.105-1.207-0.175-1.776-0.175zM68.099 11.873h-3.192v13.614h3.192v-13.614zM66.532 6.083c-0.522 0-0.986 0.174-1.358 0.535-0.383 0.36-0.568 0.802-0.568 1.337 0 0.523 0.185 0.965 0.568 1.314 0.371 0.349 0.836 0.523 1.37 0.523s0.998-0.175 1.369-0.523c0.383-0.349 0.569-0.79 0.569-1.314 0-0.512-0.186-0.953-0.557-1.326s-0.848-0.546-1.394-0.546zM58.547 10.873v14.625h3.261v-19.008h-4.515l-5.746 14.114-5.572-14.114h-4.701v18.997h3.064v-14.613h0.104l5.885 14.625h2.31l5.792-14.625h0.116zM15.182 15.209h-15.043v-15.067h15.043v15.067zM31.792 15.209h-15.043v-15.067h15.043v15.067zM15.182 31.858h-15.043v-15.067h15.043v15.067zM31.792 31.858h-15.043v-15.067h15.043v15.067z"></path>
</symbol>
<symbol id="icon-nat-geo" viewBox="0 0 95 32">
<path fill="#c1c1c1" style="fill: var(--color5, #c1c1c1)" d="M2.832 26.794v-26.285h18.302v26.285h-18.302zM5.47 24.147h13.017v-20.991h-13.017v20.991zM33.291 12.302v-9.149h-1.251v6.52h-0.026c-1.46-2.352-2.933-4.429-4.419-6.52h-1.134v9.149h1.252v-6.562h0.011c1.473 2.364 2.948 4.457 4.435 6.562h1.133zM36.864 3.152l-3.154 9.15h1.356l0.794-2.497h2.753l0.717 2.497h1.748l-2.91-9.15h-1.305zM36.265 8.68c0.364-1.202 0.729-2.313 1.055-3.726h0.026c0.364 1.412 0.691 2.524 1.030 3.726h-2.112zM42.55 12.302h1.565v-7.923h2.398v-1.227h-6.364v1.227h2.401v7.922z"></path>
<path fill="#c1c1c1" style="fill: var(--color5, #c1c1c1)" d="M47.021 12.302h1.554v-9.15h-1.554v9.15zM53.399 12.457c2.386 0 3.871-2.13 3.871-4.863 0-2.561-1.64-4.599-3.871-4.599-2.229 0-3.876 2.039-3.876 4.599 0 2.733 1.489 4.863 3.876 4.863zM53.399 11.15c-1.631 0-2.205-1.803-2.205-3.556 0-1.685 0.651-3.293 2.205-3.293 1.552 0 2.201 1.608 2.201 3.293 0 1.752-0.572 3.556-2.201 3.556zM65.056 12.302h-1.134c-1.488-2.105-2.962-4.198-4.434-6.562h-0.013v6.562h-1.25v-9.149h1.133c1.486 2.091 2.96 4.169 4.417 6.52h0.028v-6.52h1.253v9.149zM68.63 3.152l-3.155 9.15h1.357l0.793-2.497h2.752l0.718 2.497h1.747l-2.909-9.15h-1.303zM68.029 8.68c0.366-1.202 0.729-2.313 1.057-3.726h0.026c0.365 1.412 0.691 2.524 1.029 3.726h-2.112zM73.296 3.152h1.554v7.92h3.089v1.23h-4.643v-9.15zM32.329 19.955v3.777c-0.836 0.327-1.71 0.562-2.594 0.562-2.687 0-4.382-2.092-4.382-4.784 0-2.497 1.695-4.68 4.434-4.68 0.845 0 1.694 0.316 2.216 0.706l-0.508 1.086c-0.417-0.26-1.070-0.482-1.669-0.482-1.668 0-2.804 1.32-2.804 3.399 0 2.168 1.305 3.448 2.648 3.448 0.416 0 0.77-0.050 1.097-0.221v-2.81h1.562zM37.926 16.218h-2.611v2.508h2.556v1.229h-2.556v2.952h3.078v1.23h-4.644v-9.15h4.177v1.231zM42.75 24.294c2.384 0 3.87-2.13 3.87-4.863 0-2.561-1.642-4.601-3.87-4.601-2.233 0-3.874 2.040-3.874 4.601 0 2.733 1.484 4.863 3.874 4.863zM42.75 22.987c-1.632 0-2.206-1.802-2.206-3.556 0-1.684 0.652-3.292 2.206-3.292 1.55 0 2.201 1.608 2.201 3.292 0 1.754-0.575 3.556-2.201 3.556zM54.13 19.955v3.777c-0.836 0.327-1.707 0.562-2.595 0.562-2.685 0-4.382-2.092-4.382-4.784 0-2.497 1.697-4.68 4.435-4.68 0.848 0 1.694 0.316 2.215 0.706l-0.51 1.086c-0.417-0.26-1.064-0.482-1.666-0.482-1.671 0-2.806 1.32-2.806 3.399 0 2.168 1.305 3.448 2.648 3.448 0.419 0 0.769-0.050 1.096-0.221v-2.81h1.564zM61.096 24.138l-1.842-3.79c1.004-0.534 1.581-1.622 1.581-2.72 0-1.779-1.084-2.642-2.833-2.642h-2.438v9.151h1.569v-3.451h0.703l1.472 3.451h1.788zM57.133 16.218h0.69c0.924 0 1.446 0.533 1.446 1.476 0 1.227-0.742 1.776-1.486 1.815-0.157 0.016-0.523 0.029-0.65 0.040v-3.332zM64.276 14.987l-3.156 9.151h1.355l0.797-2.498h2.753l0.713 2.498h1.751l-2.909-9.151h-1.303zM63.677 20.517c0.364-1.205 0.728-2.315 1.057-3.726h0.026c0.365 1.412 0.691 2.521 1.030 3.726h-2.113zM71.202 19.509c-0.162 0.014-0.545 0.027-0.653 0.038v-3.329h0.702c0.913 0 1.436 0.533 1.436 1.476 0 1.228-0.741 1.776-1.485 1.815zM71.421 14.987h-2.438v9.15h1.566v-3.451h0.702c1.866 0 3.002-1.517 3.002-3.058 0-1.779-1.084-2.642-2.831-2.642zM81.501 24.138h-1.564v-4.403h-3.25v4.403h-1.547v-9.15h1.547v3.516h3.25v-3.491h1.564v9.125zM83 24.138h1.555v-9.151h-1.555v9.151zM91.593 16.649c-0.378-0.237-1.002-0.509-1.604-0.509-1.594 0-2.75 1.32-2.75 3.399 0 2.168 1.276 3.448 2.79 3.448 0.581-0.003 1.121-0.173 1.576-0.465l-0.012 0.007 0.432 1.138c-0.472 0.326-1.304 0.627-2.059 0.627-2.687 0-4.383-2.092-4.383-4.784 0-2.497 1.682-4.68 4.407-4.68 0.81 0 1.564 0.342 2.102 0.706l-0.498 1.113z"></path>
</symbol>
<symbol id="icon-portfolio" viewBox="0 0 32 32">
<path fill="#fff" style="fill: var(--color3, #fff); stroke: var(--color3, #fff)" stroke="#fff" stroke-linejoin="miter" stroke-linecap="butt" stroke-miterlimit="4" stroke-width="0.3333" d="M31.832 26.965v-17.759c0.001-0.022 0.001-0.049 0.001-0.075 0-1.503-1.219-2.722-2.722-2.722-0.039 0-0.077 0.001-0.116 0.002l0.006-0h-6.533v-1.38c0.001-0.022 0.001-0.048 0.001-0.074 0-1.541-1.229-2.796-2.761-2.837l-0.004-0 12.128 24.845zM31.832 26.965v0zM12.371 2.119c-0 0-0 0-0.001 0-1.567 0-2.838 1.27-2.838 2.837v0l2.839-2.837zM12.371 2.119h7.258c0.025 0 0.050 0 0.075 0.001l-7.333-0.001zM9.533 5.035v1.377h-6.535c-0.033-0.001-0.072-0.002-0.112-0.002-1.463 0-2.657 1.155-2.719 2.603l-0 0.006 9.365-3.983zM9.533 5.035v-0.005M9.533 5.035v-0.005M9.533 5.030c-0.001-0.021-0.001-0.047-0.001-0.073v-0.001l0.001 0.074zM0.167 9.21v17.759c-0.001 0.022-0.001 0.048-0.001 0.074 0 1.541 1.229 2.796 2.76 2.837l0.004 0-0.004 0.167-2.758-20.837zM0.167 9.21v-0.005M0.167 9.21v-0.005M0.167 9.205c-0.001-0.025-0.001-0.054-0.001-0.084 0-0.036 0.001-0.072 0.002-0.108l-0 0.005-0.001 0.187zM12.281 3.349l0.090-0.002M12.281 3.349l7.347 0.165v-0.167h-7.257M12.282 3.349c-0.852 0.047-1.524 0.749-1.524 1.608 0 0.029 0.001 0.058 0.002 0.087l-0-0.004 1.521-1.691zM12.371 3.347v0zM29.083 28.651c-0.024 0.001-0.052 0.002-0.080 0.002-0.003 0-0.006 0-0.010-0h0M29.083 28.651l-0.089-0.165M29.083 28.651c0.851-0.048 1.523-0.749 1.523-1.608 0-0.029-0.001-0.058-0.002-0.086l0 0.004v-5.415l-0.258 0.169c-0.398 0.26-0.869 0.387-1.344 0.363h-8.097v2.417c-0.066 0.384-0.383 0.676-0.773 0.705l-0.003 0h-8.261c-0.393-0.029-0.709-0.322-0.775-0.7l-0.001-0.005v-2.417h-8.097c-0.034 0.002-0.074 0.003-0.114 0.003-0.458 0-0.883-0.136-1.239-0.371l0.008 0.005-0.258-0.169v5.415c-0.001 0.024-0.002 0.052-0.002 0.080 0 0.002 0 0.003 0 0.005v-0M29.083 28.651l-26.077-0.165M28.994 28.653v-0.167M28.994 28.653v-0.167M28.994 28.653h-25.988M28.994 28.487h-25.987M3.007 28.653v-0.167M3.007 28.653v-0.167M3.007 28.653c-0.001 0-0.002 0-0.003 0-0.889 0-1.609-0.72-1.611-1.608v-0M1.393 27.045v0zM29.084 20.847c-0.027 0.002-0.058 0.003-0.089 0.003h-0M29.084 20.847l-0.089-0.164M29.084 20.847c0.851-0.048 1.523-0.749 1.523-1.608 0-0.029-0.001-0.058-0.002-0.086l0 0.004M29.084 20.847l1.521-1.691M28.995 20.849v-0.167M28.995 20.849v-0.167M28.995 20.849h-8.089v-1.845c0-0.139-0.080-0.259-0.229-0.351-0.154-0.091-0.339-0.145-0.537-0.145-0.002 0-0.003 0-0.005 0h-8.272c-0.188 0-0.391 0.052-0.541 0.145-0.149 0.093-0.229 0.212-0.229 0.351v1.845h-8.088M28.994 20.683h-7.921v-1.678c0-0.429-0.507-0.663-0.937-0.663h-8.273c-0.429 0-0.937 0.234-0.937 0.663v1.678h-7.921M3.006 20.849v-0.167M3.006 20.849v-0.167M3.006 20.849c-0.001 0-0.002 0-0.003 0-0.889 0-1.609-0.72-1.611-1.608v-0M3.006 20.683c-0.001 0-0.002 0-0.003 0-0.797 0-1.443-0.645-1.444-1.442v-0M1.559 19.241h-0.167M1.559 19.241c0-0.027 0.001-0.053 0.003-0.080M1.56 19.241l0.002-0.080M1.56 19.241l-0.167 0.001M1.56 19.241h-0.167M1.562 19.161v-0.001zM1.395 9.215c-0.002-0.026-0.003-0.057-0.003-0.088 0-0.792 0.616-1.439 1.395-1.49l0.004-0c0.073-0.005 0.147-0.004 0.221 0.002h25.973c0.038-0.003 0.083-0.005 0.127-0.005 0.777 0 1.416 0.594 1.487 1.353l0 0.006M1.395 9.215l29.043-0.005M1.395 9.215v0zM30.601 8.992v0zM30.601 8.992c0.007 0.074 0.008 0.149 0.003 0.223M30.605 9.215v-0.005h-0.167M30.605 9.215v9.941M30.605 9.215v0.005l-0.167-0.011M30.438 9.21l0.167 9.947M12.321 23.804v0.167h7.357v-4.235h-7.357v4.069z"></path>
</symbol>
<symbol id="icon-square" viewBox="0 0 32 32">
<path fill="#ffc1da" style="fill: var(--color8, #ffc1da); stroke: var(--color3, #fff)" opacity="0.28" stroke="#fff" stroke-linejoin="miter" stroke-linecap="butt" stroke-miterlimit="4" stroke-width="1.5" d="M2 0.75h28c0.69 0 1.25 0.56 1.25 1.25v28c0 0.69-0.56 1.25-1.25 1.25h-28c-0.69 0-1.25-0.56-1.25-1.25v-28c0-0.69 0.56-1.25 1.25-1.25z"></path>
</symbol>
<symbol id="icon-twitter" viewBox="0 0 31 32">
<path fill="#f78cb6" style="fill: var(--color1, #f78cb6)" d="M30.769 6.436c-1.936 0.092-1.893 0.085-2.112 0.103l1.146-3.404s-3.578 1.369-4.485 1.614c-2.382-2.226-5.924-2.325-8.455-0.706-2.073 1.326-3.185 3.601-2.814 6.262-4.034-0.582-7.434-2.572-10.118-5.925l-0.849-1.060-0.634 1.211c-0.553 1.026-0.879 2.246-0.879 3.542 0 0.49 0.047 0.97 0.135 1.434l-0.008-0.047c0.132 0.677 0.353 1.321 0.661 1.924l-0.729-0.293-0.086 1.265c-0.087 1.285 0.324 2.786 1.1 4.012 0.219 0.347 0.501 0.726 0.858 1.102l-0.377-0.062 0.459 1.451c0.603 1.905 1.858 3.378 3.484 4.197-1.625 0.719-2.937 1.175-5.095 1.914l-1.973 0.674 1.823 1.036c0.695 0.396 3.151 1.716 5.578 2.112 5.396 0.88 11.47 0.164 15.557-3.668 3.445-3.225 4.575-7.813 4.34-12.588-0.034-0.724 0.155-1.413 0.537-1.942 0.763-1.061 2.93-4.151 2.935-4.158zM26.393 9.47c-0.634 0.879-0.95 2.002-0.894 3.162 0.236 4.816-1.024 8.551-3.746 11.102-3.179 2.978-8.309 4.148-14.073 3.207-1.044-0.17-2.122-0.551-3.015-0.932 1.809-0.647 3.206-1.225 5.462-2.335l3.148-1.551-3.477-0.23c-1.665-0.111-3.052-0.95-3.904-2.314 0.483-0.029 0.935-0.111 1.367-0.24l-0.043 0.011 3.316-0.96-3.344-0.852c-1.289-0.324-2.355-1.116-3.029-2.18l-0.012-0.020c-0.28-0.435-0.506-0.938-0.651-1.475l-0.009-0.038c0.335 0.094 0.726 0.16 1.356 0.225l3.095 0.318-2.453-1.989c-1.766-1.433-2.473-3.586-1.956-5.655 5.514 5.947 11.988 5.502 12.64 5.658-0.144-1.449-0.148-1.452-0.185-1.59-0.834-3.068 0.994-4.626 1.819-5.153 1.723-1.102 4.458-1.268 6.353 0.546 0.409 0.391 0.962 0.545 1.479 0.412 0.465-0.121 0.847-0.247 1.22-0.386l-0.777 2.31h0.992l-0.682 0.949z"></path>
</symbol>
<symbol id="icon-video" viewBox="0 0 32 32">
<path fill="#a7a7a7" style="fill: var(--color6, #a7a7a7)" d="M21.184 15.205l-7.5-4.688c-0.141-0.090-0.313-0.143-0.497-0.143-0.518 0-0.937 0.42-0.937 0.937 0 0 0 0 0 0v0 9.376c0 0 0 0 0 0 0 0.518 0.42 0.937 0.937 0.937 0.184 0 0.356-0.053 0.501-0.145l-0.004 0.002 7.5-4.688c0.266-0.168 0.44-0.461 0.44-0.795s-0.174-0.626-0.436-0.792l-0.004-0.002zM14.125 18.996v-5.992l4.793 2.996-4.793 2.996z"></path>
<path fill="#a7a7a7" style="fill: var(--color6, #a7a7a7)" d="M27.312 3.813h-22.624c-2.587 0.003-4.683 2.099-4.688 4.685v15c0.003 2.588 2.1 4.685 4.688 4.688h22.624c2.587-0.003 4.684-2.099 4.688-4.686v-15c-0.003-2.588-2.1-4.685-4.688-4.688h-0zM30.125 23.5c0 1.551-1.263 2.813-2.813 2.813h-22.624c-1.553-0.002-2.812-1.26-2.813-2.813v-15c0-1.551 1.263-2.813 2.813-2.813h22.624c1.551 0 2.813 1.263 2.813 2.813v15z"></path>
</symbol>
<symbol id="icon-Web" viewBox="0 0 32 32">
<path fill="#fff" style="fill: var(--color3, #fff)" d="M0 15.479v-0.046c0.401-5.25 2.277-9.189 5.534-11.678 3.214-2.535 6.695-3.755 10.489-3.755 3.971-0.046 7.675 1.313 10.978 4.029 3.349 2.669 4.999 6.653 4.999 11.811v0.318c0 5.205-1.651 9.097-4.999 11.768-3.347 2.715-7.051 4.073-11.024 4.073h-0.178c-3.882-0.046-7.453-1.403-10.755-4.119-3.303-2.671-4.999-6.789-5.043-12.401zM15.040 8.373v-7.152h-1.071c-0.223 0.272-0.401 0.589-0.581 0.861-0.178 0.271-0.357 0.543-0.535 0.859-0.171 0.251-0.349 0.547-0.511 0.853l-0.025 0.052c-0.161 0.246-0.31 0.529-0.433 0.826l-0.013 0.034c-0.269 0.453-0.491 0.905-0.67 1.312-0.183 0.326-0.363 0.714-0.516 1.116l-0.020 0.061c0.269 0.181 0.581 0.407 0.937 0.543 0.402 0.137 0.803 0.272 1.206 0.362 0.446 0.091 0.848 0.136 1.205 0.182 0.402 0.046 0.759 0.090 1.026 0.090zM16.914 1.221v7.106c0.224 0 0.491 0.046 0.759 0 0.269 0 0.581-0.046 0.848-0.091 0.491-0.089 1.072-0.225 1.518-0.361 0.491-0.181 0.937-0.407 1.25-0.679-0.536-1.312-1.117-2.354-1.696-3.349-0.574-0.98-1.224-1.827-1.966-2.583l0.002 0.002v-0.046h-0.713zM12.095 1.629v-0.046c-0.312 0.136-0.625 0.362-0.983 0.498-0.416 0.175-0.753 0.342-1.079 0.525l0.054-0.028c-0.625 0.318-1.25 0.679-1.874 1.086-0.581 0.408-1.161 0.861-1.651 1.314 0.178 0.181 0.401 0.361 0.579 0.497s0.402 0.317 0.625 0.498c0.178 0.090 0.401 0.226 0.625 0.407 0.223 0.136 0.491 0.317 0.759 0.498 0.357-0.815 0.713-1.675 1.16-2.445 0.446-0.815 0.937-1.584 1.429-2.263 0.046-0.105 0.106-0.195 0.179-0.272l-0 0c0.045-0.046 0.089-0.181 0.178-0.271zM25.752 4.977v-0.046c-1.117-0.859-2.098-1.583-3.080-2.035-0.509-0.264-1.449-0.69-2.401-1.096l-0.457-0.173c0.695 0.709 1.277 1.531 1.718 2.435l0.024 0.055c0.446 0.905 0.893 1.856 1.249 2.761 0.179-0.091 0.402-0.182 0.67-0.362 0.223-0.136 0.536-0.272 0.803-0.407 0.267-0.182 0.491-0.362 0.759-0.544 0.267-0.226 0.536-0.407 0.714-0.589zM24.993 15.071h5.131c0-1.674-0.357-3.258-1.025-4.888-0.626-1.57-1.519-2.91-2.634-4.029l0 0v-0.046c-0.227 0.358-0.51 0.659-0.839 0.9l-0.009 0.006c-0.358 0.226-0.67 0.407-1.027 0.587-0.223 0.137-0.446 0.318-0.669 0.408-0.224 0.136-0.536 0.226-0.759 0.362 0.178 0.362 0.357 0.769 0.535 1.131 0.135 0.407 0.358 0.859 0.446 1.267 0.269 0.723 0.447 1.494 0.626 2.263 0.134 0.679 0.223 1.403 0.223 2.037zM8.837 8.373v-0.046c-0.357-0.181-0.759-0.317-1.071-0.498-0.312-0.226-0.625-0.453-0.893-0.633-0.289-0.151-0.537-0.316-0.767-0.504l0.008 0.006c-0.223-0.181-0.401-0.361-0.581-0.543-1.16 1.131-2.008 2.4-2.544 3.893-0.574 1.456-0.985 3.144-1.154 4.903l-0.006 0.077h5.489c0-1.269 0.179-2.49 0.491-3.712 0.267-1.267 0.67-2.217 1.026-2.942zM15.040 15.026v-5.206c-0.181 0.022-0.39 0.034-0.602 0.034s-0.422-0.012-0.627-0.036l0.025 0.002c-0.446-0.046-0.893-0.181-1.295-0.317-0.357-0.091-0.802-0.182-1.16-0.317-0.423-0.105-0.794-0.26-1.134-0.463l0.019 0.010c-0.264 0.454-0.492 0.98-0.656 1.532l-0.013 0.052c-0.223 0.543-0.357 1.131-0.491 1.674-0.089 0.543-0.134 1.131-0.178 1.63-0.045 0.497-0.089 0.995-0.089 1.403h6.203zM16.914 9.911v5.115h6.606c0-0.272 0-0.589-0.045-0.951-0.089-0.317-0.134-0.725-0.178-1.086-0.134-0.544-0.267-1.131-0.446-1.675-0.179-0.498-0.358-0.995-0.581-1.403-0.089-0.226-0.178-0.497-0.269-0.679-0.134-0.226-0.267-0.362-0.357-0.497-0.491 0.361-1.16 0.587-1.963 0.769-0.759 0.181-1.651 0.362-2.455 0.407h-0.313zM7.319 16.519h-5.489c0 0.77 0.134 1.63 0.358 2.671 0.223 1.086 0.669 2.082 1.16 3.168 0.223 0.544 0.491 1.086 0.759 1.63 0.312 0.498 0.67 1.041 1.026 1.539 0.267-0.182 0.536-0.318 0.759-0.453 0.267-0.137 0.579-0.318 0.848-0.453 0.312-0.137 0.625-0.272 0.982-0.453 0.312-0.137 0.714-0.318 1.115-0.498-0.357-1.131-0.759-2.217-1.026-3.44-0.312-1.177-0.491-2.354-0.491-3.666v-0.046zM15.040 21.815v-5.296h-6.203c0 0.362 0.046 0.905 0.134 1.449 0.046 0.543 0.179 1.131 0.269 1.72 0.178 0.633 0.312 1.267 0.491 1.81 0.177 0.543 0.357 0.995 0.535 1.403 0.57-0.231 1.284-0.464 2.015-0.652l0.126-0.028c0.581-0.181 1.117-0.317 1.651-0.361h0.491c0.178-0.046 0.357-0.046 0.491-0.046zM16.914 16.519v5.251c0.313 0.046 0.67 0.090 1.027 0.135 0.401 0.046 0.891 0.137 1.294 0.226l0.67 0.137c0.223 0.089 0.491 0.135 0.714 0.181 0.267 0.090 0.535 0.135 0.803 0.226 0.223 0.090 0.446 0.135 0.624 0.226 0.581-1.494 0.937-2.717 1.161-3.758 0.223-0.994 0.312-1.855 0.312-2.579v-0.046h-6.606zM30.126 16.565v-0.046h-5.133v0.272c-0.046 0.859-0.178 1.856-0.358 2.897-0.178 0.995-0.579 2.171-1.115 3.621 0.714 0.362 1.383 0.725 1.92 1.086 0.535 0.362 1.026 0.77 1.383 1.131 0.759-0.769 1.429-1.81 2.008-3.168 0.581-1.312 0.983-2.67 1.206-4.119 0.045-0.271 0.045-0.543 0.089-0.815v-0.859zM15.040 30.325v-7.062c-1.115 0.182-2.053 0.408-2.766 0.589-0.715 0.182-1.25 0.362-1.608 0.544 0.269 0.679 0.536 1.266 0.803 1.81 0.269 0.497 0.581 1.040 0.848 1.494 0.089 0.181 0.269 0.362 0.402 0.589 0.134 0.181 0.223 0.407 0.357 0.587 0.134 0.226 0.267 0.498 0.402 0.77 0.178 0.226 0.312 0.497 0.491 0.679h1.070zM16.914 30.325h1.027c0.437-0.358 0.807-0.777 1.103-1.247l0.012-0.021c0.357-0.497 0.759-1.086 1.026-1.583 0.313-0.589 0.625-1.131 0.893-1.675 0.269-0.543 0.491-1.040 0.67-1.402-0.491-0.182-1.16-0.362-1.83-0.544-0.67-0.181-1.607-0.362-2.901-0.543v7.016zM25.752 26.613v-0.046c-0.271-0.359-0.597-0.66-0.968-0.896l-0.015-0.009c-0.194-0.144-0.413-0.28-0.643-0.395l-0.025-0.012c-0.267-0.136-0.625-0.317-0.937-0.498-0.554 1.16-0.867 1.768-1.186 2.373l0.249-0.517c-0.402 0.861-1.117 1.901-2.009 3.033 1.127-0.193 2.134-0.589 3.025-1.151l-0.034 0.020c0.982-0.498 1.829-1.177 2.544-1.902zM9.15 25.166v-0.046c-0.313 0.182-0.803 0.408-1.295 0.634-0.536 0.226-1.115 0.497-1.651 0.859 0.313 0.272 0.625 0.543 0.893 0.725 0.269 0.226 0.581 0.407 0.848 0.589 0.491 0.317 1.071 0.633 1.651 0.905 0.581 0.271 1.295 0.543 2.187 0.815-0.313-0.362-0.536-0.815-0.759-1.177-0.224-0.362-0.491-0.725-0.714-1.086-0.223-0.362-0.402-0.77-0.581-1.131-0.223-0.362-0.401-0.725-0.579-1.087z"></path>
</symbol>
<symbol id="icon-d-design-white" viewBox="0 0 32 32">
<path fill="#fff" style="fill: var(--color1, #fff)" d="M32.112 17.062v-0.001l-0.445-0.481 0.039-0.105h-0l-7.18-2.643v-8.584h-0.001c0.012-0.266-0.147-0.518-0.406-0.611-0-0-0-0-0-0l-7.586-2.791c-0-0-0-0-0-0-0.137-0.051-0.287-0.051-0.423 0-0 0-0 0-0 0l-7.587 2.792c-0.169 0.063-0.301 0.196-0.364 0.363h-0.042v8.832l-7.181 2.643c-0.169 0.063-0.301 0.196-0.364 0.363h-0.042v9.298h0c-0 0.257 0.158 0.494 0.406 0.586l7.586 2.791c0 0 0 0 0 0 0.137 0.051 0.287 0.051 0.424 0 0 0 0-0 0-0l7.375-2.714 7.375 2.714c0 0 0 0 0 0 0.137 0.051 0.287 0.051 0.424 0 0-0 0-0 0-0l7.586-2.791c0.16-0.059 0.288-0.182 0.355-0.337h0.052v-9.191l-0-0.011-0-0.036c-0-0.028-0-0.062 0-0.085zM8.115 20.29v7.746l-6.351-2.337v-7.747l6.351 2.338zM8.693 14.948l5.783 2.128-5.743 2.113-5.783-2.128 5.743-2.114zM15.702 17.953v7.747l-6.351 2.337v-7.746l6.351-2.338zM15.702 8.453v7.717l-6.351-2.338v-7.717l6.351 2.337zM10.537 5.224l5.783-2.128 5.783 2.128-5.783 2.128-5.783-2.128zM16.938 8.453l6.352-2.337v7.717l-6.352 2.338v-7.717zM23.289 20.29v7.746l-6.351-2.337v-7.747l6.352 2.338zM29.69 17.061l-5.783 2.128-5.743-2.113 5.783-2.128 5.743 2.114zM30.876 17.953v7.747l-6.351 2.337v-7.746l6.352-2.338z"></path>
</symbol>
<symbol id="icon-layers-white" viewBox="0 0 32 32">
<path fill="#fff" style="fill: var(--color1, #fff); stroke: var(--color1, #fff)" stroke="#fff" stroke-linejoin="miter" stroke-linecap="butt" stroke-miterlimit="4" stroke-width="0.3636" d="M27.957 13.198l3.505-2.181c0.221-0.138 0.356-0.38 0.356-0.64s-0.134-0.503-0.354-0.642v0l-15.062-9.437c-0.245-0.154-0.557-0.154-0.803 0v0l-15.062 9.437c-0.221 0.138-0.355 0.381-0.354 0.642l27.775 2.822zM27.957 13.198l0.25 0.154M27.957 13.198l0.25 0.154M31.558 16.796l-0.096-0.154-3.505 2.181 3.502 2.159c0.222 0.137 0.358 0.379 0.359 0.64s-0.133 0.504-0.354 0.643l-15.062 9.438c-0.123 0.077-0.262 0.115-0.401 0.115s-0.278-0.038-0.401-0.115l-15.062-9.437c-0.221-0.138-0.355-0.38-0.354-0.641s0.134-0.502 0.355-0.64l3.482-2.176-3.481-2.166c0 0 0 0 0-0-0.221-0.138-0.356-0.38-0.356-0.641s0.134-0.503 0.355-0.641l3.482-2.176-3.481-2.166c-0.221-0.138-0.356-0.38-0.356-0.64l31.376 6.42zM31.558 16.796l-0.096-0.154c0.222-0.138 0.357-0.382 0.356-0.643s-0.136-0.504-0.359-0.642l-3.252-2.005M31.558 16.796l-3.351-3.444M2.611 10.218l-0.247 0.155 13.636 8.487 13.636-8.487-13.636-8.544-13.389 8.389zM29.383 21.786l0.248-0.155-3.107-1.915-10.125 6.302c-0.122 0.076-0.261 0.114-0.399 0.114s-0.277-0.038-0.399-0.114l-10.153-6.319-3.086 1.928 13.638 8.545 13.383-8.385zM15.904 24.425l0.096 0.060 13.627-8.482-3.104-1.913-10.125 6.302c-0.122 0.076-0.261 0.114-0.399 0.114s-0.277-0.038-0.399-0.114l-10.153-6.319-3.082 1.926 13.538 8.426z"></path>
</symbol>
<symbol id="icon-d-white" viewBox="0 0 32 32">
<path fill="#fff" style="fill: var(--color1, #fff)" d="M4.691 0h-3.749c-0.518 0-0.937 0.42-0.937 0.937v3.811c0 0.518 0.42 0.937 0.937 0.937s0.937-0.42 0.937-0.937v-2.874h2.812c0.518 0 0.937-0.42 0.937-0.937s-0.42-0.937-0.937-0.937z"></path>
<path fill="#fff" style="fill: var(--color1, #fff)" d="M31.058 0h-3.749c-0.518 0-0.937 0.42-0.937 0.937s0.42 0.937 0.937 0.937h2.812v2.874c0 0.518 0.42 0.937 0.937 0.937s0.937-0.42 0.937-0.937v-3.811c0-0.518-0.42-0.937-0.937-0.937z"></path>
<path fill="#fff" style="fill: var(--color1, #fff)" d="M4.691 30.116h-2.812v-2.874c0-0.518-0.42-0.937-0.937-0.937s-0.937 0.42-0.937 0.937v3.811c0 0.518 0.42 0.937 0.937 0.937h3.749c0.518 0 0.937-0.42 0.937-0.937s-0.42-0.937-0.937-0.937z"></path>
<path fill="#fff" style="fill: var(--color1, #fff)" d="M31.058 26.305c-0.518 0-0.937 0.42-0.937 0.937v2.874h-2.812c-0.518 0-0.937 0.42-0.937 0.937s0.42 0.937 0.937 0.937h3.749c0.518 0 0.937-0.42 0.937-0.937v-3.811c0-0.518-0.42-0.937-0.937-0.937z"></path>
<path fill="#fff" style="fill: var(--color1, #fff)" d="M29.523 7.689l-13.053-7.563c-0.291-0.168-0.649-0.168-0.94 0l-13.059 7.563c-0.288 0.167-0.468 0.477-0.468 0.81 0 0.002 0 0.004 0 0.006v14.995c0 0.336 0.183 0.651 0.477 0.816l13.049 7.557c0.14 0.081 0.308 0.126 0.47 0.126 0.169 0 0.334-0.048 0.47-0.126l13.044-7.557c0.002-0.001 0.004-0.003 0.006-0.004 0.302-0.218 0.465-0.401 0.47-0.801 0-0.004 0-0.007 0-0.011v-14.995c0-0.002 0-0.004 0-0.006 0-0.333-0.18-0.644-0.468-0.81zM15.063 29.437l-10.239-5.932 7.894-4.527c0.449-0.258 0.604-0.83 0.347-1.279s-0.83-0.604-1.279-0.347l-7.906 4.531v-11.763l11.184 6.423v12.894zM16 14.919l-11.178-6.423 11.178-6.476 11.178 6.476-11.178 6.423zM28.122 21.882l-7.907-4.531c-0.449-0.258-1.022-0.102-1.279 0.347s-0.102 1.022 0.347 1.279l7.894 4.527-10.239 5.932v-12.894l11.185-6.423v11.763h0z"></path>
</symbol>
<symbol id="icon-portfolio-w" viewBox="0 0 32 32">
<path fill="#fff" style="fill: var(--color1, #fff); stroke: var(--color1, #fff)" stroke="#fff" stroke-linejoin="miter" stroke-linecap="butt" stroke-miterlimit="4" stroke-width="0.3333" d="M31.832 26.965v-17.759c0.001-0.022 0.001-0.049 0.001-0.075 0-1.503-1.219-2.722-2.722-2.722-0.039 0-0.077 0.001-0.116 0.002l0.006-0h-6.533v-1.38c0.001-0.022 0.001-0.048 0.001-0.074 0-1.541-1.229-2.796-2.761-2.837l-0.004-0 12.128 24.845zM31.832 26.965v0zM12.371 2.119c-0 0-0 0-0.001 0-1.567 0-2.838 1.27-2.838 2.837v0l2.839-2.837zM12.371 2.119h7.258c0.025 0 0.050 0 0.075 0.001l-7.333-0.001zM9.533 5.035v1.377h-6.535c-0.033-0.001-0.072-0.002-0.112-0.002-1.463 0-2.657 1.155-2.719 2.603l-0 0.006 9.365-3.983zM9.533 5.035v-0.005M9.533 5.035v-0.005M9.533 5.030c-0.001-0.021-0.001-0.047-0.001-0.073v-0.001l0.001 0.074zM0.167 9.21v17.759c-0.001 0.022-0.001 0.048-0.001 0.074 0 1.541 1.229 2.796 2.76 2.837l0.004 0-0.004 0.167-2.758-20.837zM0.167 9.21v-0.005M0.167 9.21v-0.005M0.167 9.205c-0.001-0.025-0.001-0.054-0.001-0.084 0-0.036 0.001-0.072 0.002-0.108l-0 0.005-0.001 0.187zM12.281 3.349l0.090-0.002M12.281 3.349l7.347 0.165v-0.167h-7.257M12.282 3.349c-0.852 0.047-1.524 0.749-1.524 1.608 0 0.029 0.001 0.058 0.002 0.087l-0-0.004 1.521-1.691zM12.371 3.347v0zM29.083 28.651c-0.024 0.001-0.052 0.002-0.080 0.002-0.003 0-0.006 0-0.010-0h0M29.083 28.651l-0.089-0.165M29.083 28.651c0.851-0.048 1.523-0.749 1.523-1.608 0-0.029-0.001-0.058-0.002-0.086l0 0.004v-5.415l-0.258 0.169c-0.398 0.26-0.869 0.387-1.344 0.363h-8.097v2.417c-0.066 0.384-0.383 0.676-0.773 0.705l-0.003 0h-8.261c-0.393-0.029-0.709-0.322-0.775-0.7l-0.001-0.005v-2.417h-8.097c-0.034 0.002-0.074 0.003-0.114 0.003-0.458 0-0.883-0.136-1.239-0.371l0.008 0.005-0.258-0.169v5.415c-0.001 0.024-0.002 0.052-0.002 0.080 0 0.002 0 0.003 0 0.005v-0M29.083 28.651l-26.077-0.165M28.994 28.653v-0.167M28.994 28.653v-0.167M28.994 28.653h-25.988M28.994 28.487h-25.987M3.007 28.653v-0.167M3.007 28.653v-0.167M3.007 28.653c-0.001 0-0.002 0-0.003 0-0.889 0-1.609-0.72-1.611-1.608v-0M1.393 27.045v0zM29.084 20.847c-0.027 0.002-0.058 0.003-0.089 0.003h-0M29.084 20.847l-0.089-0.164M29.084 20.847c0.851-0.048 1.523-0.749 1.523-1.608 0-0.029-0.001-0.058-0.002-0.086l0 0.004M29.084 20.847l1.521-1.691M28.995 20.849v-0.167M28.995 20.849v-0.167M28.995 20.849h-8.089v-1.845c0-0.139-0.080-0.259-0.229-0.351-0.154-0.091-0.339-0.145-0.537-0.145-0.002 0-0.003 0-0.005 0h-8.272c-0.188 0-0.391 0.052-0.541 0.145-0.149 0.093-0.229 0.212-0.229 0.351v1.845h-8.088M28.994 20.683h-7.921v-1.678c0-0.429-0.507-0.663-0.937-0.663h-8.273c-0.429 0-0.937 0.234-0.937 0.663v1.678h-7.921M3.006 20.849v-0.167M3.006 20.849v-0.167M3.006 20.849c-0.001 0-0.002 0-0.003 0-0.889 0-1.609-0.72-1.611-1.608v-0M3.006 20.683c-0.001 0-0.002 0-0.003 0-0.797 0-1.443-0.645-1.444-1.442v-0M1.559 19.241h-0.167M1.559 19.241c0-0.027 0.001-0.053 0.003-0.080M1.56 19.241l0.002-0.080M1.56 19.241l-0.167 0.001M1.56 19.241h-0.167M1.562 19.161v-0.001zM1.395 9.215c-0.002-0.026-0.003-0.057-0.003-0.088 0-0.792 0.616-1.439 1.395-1.49l0.004-0c0.073-0.005 0.147-0.004 0.221 0.002h25.973c0.038-0.003 0.083-0.005 0.127-0.005 0.777 0 1.416 0.594 1.487 1.353l0 0.006M1.395 9.215l29.043-0.005M1.395 9.215v0zM30.601 8.992v0zM30.601 8.992c0.007 0.074 0.008 0.149 0.003 0.223M30.605 9.215v-0.005h-0.167M30.605 9.215v9.941M30.605 9.215v0.005l-0.167-0.011M30.438 9.21l0.167 9.947M12.321 23.804v0.167h7.357v-4.235h-7.357v4.069z"></path>
</symbol>
</defs>
</svg>
